<?xml version="1.0" encoding="utf-8"?>
<!-- Generator: Adobe Illustrator 21.0.0, SVG Export Plug-In . SVG Version: 6.00 Build 0)  -->
<svg version="1.1" id="Layer_1" xmlns="http://www.w3.org/2000/svg" xmlns:xlink="http://www.w3.org/1999/xlink" x="0px" y="0px"
	 viewBox="0 0 640 180" style="enable-background:new 0 0 640 180;" xml:space="preserve">
<style type="text/css">
	.st0{display:none;enable-background:new    ;}
	.st1{display:inline;fill:#8C131D;}
	.st2{enable-background:new    ;}
	.st3{fill:#A22023;}
</style>
<g class="st0">
	<path class="st1" d="M87.3,98.3c0.4,0.2,0.7,0.4,0.7,0.6c0,0.3-0.3,0.5-0.9,0.6c-1,0.2-1.5,0.2-1.3,0.1c-0.5,0.1-1,0.5-1.5,1
		c-1,1.3-2,4.1-3,8.3c-1.2,5.3-2.2,12-2.7,19.9l1.3-3.3c0.3-0.6,0.6-1,0.9-1c0.2,0,0.3,0.1,0.4,0.4c0,0.2,0,0.5-0.1,0.9
		c-0.6,2.3-0.9,3.6-0.9,3.7c-0.4,1.7-0.6,3-0.6,3.9c0,1-0.2,1.6-0.5,1.6s-1.1-0.2-2.5-0.7c-0.4-0.1-0.6-0.7-0.8-1.8
		c-0.3-2-0.2-5.7,0.2-11.1c-6.4,0.6-11.2,1.4-14.2,2.4c-0.4,2-1.1,4.6-2.1,7.8s-1.6,5.3-2.1,6.3c-0.4,0.9-1,1.3-1.8,1.2
		c-1.8-0.3-2.7-0.7-2.8-1.2c0-0.3,0-0.7,0.2-1.2c0.3-0.8,0.7-1.9,1.1-3.3c0-0.2-0.1-0.8-0.2-1.9c-0.1-0.5,0-0.8,0.3-0.8
		c0.2,0,0.7,0.3,1.4,0.9c0.5,0.4,0.7,0.8,0.7,1.1c0.8-1.3,1.5-3.3,2-6c-1.2-1.7-1.8-2.9-1.9-3.4c-0.2-1.1,1-1.8,3.4-2.1
		c0.6-2,1.2-4.8,1.9-8.4c0.8-3.8,1.2-6.4,1.3-7.9c-0.2,0.4-1.5,1.2-3.8,2.4c-2.9,1.5-4.8,2.6-5.8,3.2c-1.7,1.2-2.4,2.3-2.3,3.4
		c0.1,0.5,0.3,1.1,0.7,1.9c0,0.1,0.1,0.2,0.1,0.3c0.1,0.4-0.1,0.6-0.5,0.6c-0.3,0-0.6-0.1-0.8-0.3c-0.5-0.6-1-1.5-1.6-2.6
		c-0.7-1.3-1-2.2-1.1-2.9c-0.1-1.3,1.6-2.6,5.1-4c2.3-0.9,4.7-1.8,7-2.6c1.5-0.7,2.6-1.6,3.1-2.7c0.3-0.6,0.5-0.9,0.6-0.9
		c0.3,0,0.8,0.2,1.6,0.6c0.3,0.2,0.5,0.5,0.6,1c0.1,0.9-0.3,3.6-1.3,8.3c-0.5,2-1.3,5.5-2.5,10.4c4.7-0.2,9.3-0.9,13.9-1.9
		c0.5-4.2,1.2-8.3,2.1-12c1.4-6,3-9.2,4.7-9.6C84,97.2,85.5,97.5,87.3,98.3z"/>
	<path class="st1" d="M98.6,124.1c-3.3,5.9-5.8,9-7.5,9.2c-0.8,0.1-1.9-0.3-3.3-1.2c-1.4-0.4-2.1-1.1-2.3-2.1c0-0.2,0-0.4,0-0.6
		c0-2.4,0.2-5,0.7-8c-0.7-0.2-1-0.5-1.1-0.8c0-0.2,0.1-0.4,0.5-0.4c0.3,0,0.6,0,0.9,0.1c1-3.6,2-6.2,3-7.8c0.6-1.1,1.3-1.6,1.9-1.7
		c0.3,0,1,0.1,2.2,0.4c-0.2-0.5-0.1-0.8,0.3-1c0,0,0.4-0.1,1.2-0.2c0.7-0.1,1.1,0,1.2,0.2c0,0.1,0,0.2,0,0.4c0,0.2,0,0.5,0,0.7
		c0.1,0.6,0.2,1.4,0.4,2.3s0.2,1.5,0.3,1.8c0.3,2.1,0,3.7-1.1,4.7c-0.9,0.9-2.1,1.5-3.4,1.7c-0.7,0.1-1.9,0.1-3.5,0
		c-0.2,0.6-0.4,1.6-0.5,3.2c-0.2,2-0.2,3.8,0.1,5.2c0.1,0.9,0.5,1.3,1,1.2c0.2,0,0.5-0.1,0.8-0.3c1.9-1,4.3-3.5,7.3-7.6
		c0.2-0.3,0.4-0.4,0.6-0.4c0.3,0,0.5,0.1,0.6,0.4C98.8,123.6,98.7,123.8,98.6,124.1z M93.9,113.3c-0.1-0.7-0.3-1-0.6-0.9
		c-0.2,0-0.4,0.2-0.8,0.5c-1.5,1.6-2.6,4.2-3.3,7.7c0.3,0,0.9,0,1.8-0.1c1.4-0.2,2.4-0.6,2.9-1.4c0.4-0.6,0.6-1.5,0.5-2.6
		C94.6,117.3,94.4,116.2,93.9,113.3z"/>
	<path class="st1" d="M114.9,109.5c0.3,2.2,0.4,4.4,0.1,6.5c-0.1,0.6-0.3,1-0.6,1c-0.2,0-0.8-0.2-1.7-0.8c-0.5-0.3-0.6-0.7-0.5-1.4
		c0.2-1.6,0.3-2.9,0.2-3.8c0-0.3-0.1-0.5-0.3-0.5c-0.2,0-0.5,0.4-0.9,1.1c-2.8,5.1-4.7,10.7-5.6,16.6c-0.3,1.9-0.6,2.9-1,2.9
		c-0.2,0-0.9-0.2-2.1-0.6c-0.6-0.2-0.9-0.7-0.8-1.6c0.5-6.1,1.2-11.2,2.1-15.5c-1.1,1.5-1.7,2.5-2,3.1c-0.1,0.2-0.3,0.4-0.5,0.4
		c-0.3,0-0.5-0.1-0.5-0.3c0-0.2,0-0.3,0.1-0.5c0.7-1.1,1.6-2.8,2.6-5.1c0.3-0.8,0.7-1.2,1.1-1.3c0.3,0,1,0.1,2,0.4
		c0.6,0.2,0.7,0.5,0.4,1.1c-0.3,0.5-0.7,2.4-1.3,5.5c-0.6,3-0.9,5.4-1,7.1c1.5-5.5,3.5-10.4,5.8-14.8c0.4-0.8,0.8-1.3,1.2-1.3
		c0.3,0,0.8,0.1,1.3,0.4c0.7,0,1.2,0,1.4,0.1C114.6,108.5,114.8,108.9,114.9,109.5z"/>
	<path class="st1" d="M131.1,106.7c0.1,0.5,0,1.3-0.3,2.4c-0.2,0.6-0.5,1-0.9,1c-0.3,0-0.7,0-1.5-0.1c-1.2,1.5-2.4,3.4-3.6,5.7
		c0.5-0.1,1.2-0.2,2.1-0.4c0.9-0.2,1.4-0.3,1.6-0.3c0.4-0.1,0.7,0,0.7,0.3c0,0.2-0.1,0.4-0.5,0.5c-1.6,0.6-3.4,1.5-5.6,2.6
		c-1.6,2.8-2.6,4.9-3,6.2c0.6-0.1,2-0.2,4.1-0.2s3.5-0.1,4.3-0.2c1-0.1,1.7-0.7,2.2-1.8c0.1-0.3,0.3-0.4,0.5-0.5
		c0.3,0,0.4,0.2,0.3,0.8c-0.1,0.5-0.5,1.5-1.1,3.2c-0.4,1.1-1.2,1.8-2.4,2c-0.8,0.1-2.2,0-4.2-0.3s-3.5-0.4-4.5-0.2
		c-0.4,0.1-0.8,0.1-1.1,0.2c-0.3,1.1-0.7,1.7-1.3,1.9c-0.4,0.1-0.7-0.2-1.1-0.6c-0.4-0.5-0.7-1-0.7-1.4c-0.1-0.4,0-0.8,0.3-1.2
		c0.5-0.8,1.3-1.3,2.2-1.4c1.2-1.9,2.1-3.4,2.6-4.6c-0.1-0.3-0.3-0.8-0.5-1.4c-0.2-0.5-0.3-0.8-0.3-1s0-0.4,0.1-0.5
		c0.2-0.6,1.3-1,3.1-1.3c1.2-2.2,2.4-4.3,3.7-6.2c-1.5-0.2-3.1-0.1-4.7,0.1c-1.1,0.2-1.9,0.5-2.4,1s-1,1.4-1.5,2.6
		c-0.2,0.4-0.4,0.7-0.6,0.7s-0.3-0.1-0.4-0.4c0-0.2,0-0.3,0-0.5c0.3-2,0.7-3.5,1.2-4.6c0.3-0.6,0.5-1.1,0.7-1.2
		c0.3-0.3,1-0.5,1.9-0.7c1.5-0.2,4.2-0.2,8.1,0.2c0.7-0.7,1.1-1.1,1.3-1.1s0.4,0,0.6,0C130.8,106.2,131,106.4,131.1,106.7z"/>
	<path class="st1" d="M149.1,83.6c0.2,0.1,0.4,0.3,0.4,0.5c0,0.3-0.1,0.5-0.5,0.6c-0.2,0-0.4,0-0.6-0.1c-0.8-0.3-1.5-0.4-1.8-0.3
		c-1.1,0.2-2.1,1.4-3,3.6c-3.5,8.2-5.3,18.4-5.5,30.6c0,0.3,0,0.8-0.1,1.3c0.3-0.5,0.8-1.2,1.4-2.2c0.4-0.6,0.6-0.9,0.8-0.9
		c0.4-0.1,0.5,0.2,0.2,0.8c-1.3,2.6-2,5.2-2.1,7.8c-0.1,0.7-0.3,1-0.6,1c-0.1,0-0.3,0-0.6-0.1c-1-0.4-1.5-0.7-1.6-0.8
		c-0.4-0.3-0.6-0.7-0.7-1.2c0-0.3,0-0.6,0-1c0.4-11.1,1.5-20.7,3.5-28.7c1.5-6.1,3-10.1,4.6-12.1c0.4-0.5,0.9-0.9,1.4-0.9
		c0.5-0.1,1.1,0.1,1.9,0.6C147.2,82.5,148.2,83,149.1,83.6z"/>
	<path class="st1" d="M149.2,106.3c-0.1,2.3-0.6,6.3-1.5,11.9c0.4-0.5,1-1.4,1.7-2.7c0.1-0.2,0.2-0.3,0.3-0.3c0.3,0,0.3,0.2,0.2,0.7
		c-0.1,0.2-0.6,1.5-1.6,3.8c-0.8,1.8-1.3,3.3-1.6,4.7c-0.1,0.4-0.3,0.6-0.8,0.7c-0.4,0.1-1-0.1-1.7-0.3c-0.5-0.2-0.7-0.3-0.7-0.4
		s0-0.3,0.2-0.7c0.7-1.7,1.3-4.6,1.8-8.5c0.5-3.8,0.7-6.6,0.6-8.4c-0.1-0.8-0.2-1.1-0.4-1.1s-0.4,0.2-0.7,0.7l-1.4,1.7
		c-0.5,0.6-0.8,0.7-0.8,0.2c0-0.1,0-0.3,0.2-0.5c0.6-1.2,1.3-2.4,2.1-3.6c0.2-0.3,0.5-0.5,0.7-0.5c0.3,0,0.7,0.1,1.3,0.4
		c0.8,0.1,1.3,0.1,1.4,0.2c0.4,0.2,0.7,0.6,0.8,1.2C149.2,105.5,149.2,105.8,149.2,106.3z M151.1,94.6c0.3,0.2,0.5,0.4,0.5,0.6
		c0.1,0.5-0.5,1.4-1.8,2.6c-0.9,0.8-1.8,1.2-2.7,1.1c-0.5,0-1-0.1-1.4-0.4c-0.1-0.1-0.2-0.2-0.3-0.3c-0.1-0.1-0.1-0.2-0.1-0.3
		c0-0.1,0.1-0.1,0.3-0.1c1.4-1.6,2.2-2.7,2.6-3.4c0.3-0.5,0.6-0.8,0.7-0.8C149.3,93.7,150,94,151.1,94.6z"/>
	<path class="st1" d="M165.5,102.3c0.4,2.6,0.3,4.8-0.1,6.5c-0.2,0.7-0.7,0.9-1.4,0.7c-1-0.4-1.6-0.7-1.6-1.1c0-0.2,0.1-0.3,0.3-0.5
		c0.3-1.7,0.4-3,0.2-3.9c-0.1-0.8-0.6-1.1-1.3-1c-0.1,0-0.2,0-0.4,0s-0.3,0-0.4,0c-0.6,0.1-1.2,0.8-1.9,2c-0.8,1.4-1.4,3.3-1.9,5.6
		c-0.4,2-0.7,3.6-0.7,5c0,1,0,1.9,0.1,2.6c0.4,2.6,1.4,3.7,3,3.4c1.4-0.2,3.3-2.4,5.5-6.4c0.2-0.4,0.4-0.6,0.7-0.6
		c0.2,0,0.4,0.1,0.4,0.4c0,0.1,0,0.3-0.1,0.5c-0.6,2.3-1.5,4.5-2.7,6.4c-0.3,0.5-0.9,0.8-1.8,0.9c-0.5,0.1-1.2,0.1-2,0
		c-1.6,0.1-2.9-0.2-4-0.9c-1.1-0.8-1.8-2-2-3.6c-0.2-1.8,0.1-4.4,0.8-7.8c0.8-3.6,1.7-6.4,2.9-8.1c0.5-0.8,1-1.2,1.5-1.3
		c0.4-0.1,1.4,0.2,2.8,0.7c0.7-0.4,1.3-0.6,2-0.7C164.6,101,165.4,101.4,165.5,102.3z"/>
	<path class="st1" d="M184.2,78.4c0.2,0.1,0.4,0.3,0.4,0.5c0,0.3-0.1,0.5-0.5,0.5c-0.2,0-0.4,0-0.6-0.1c-0.8-0.3-1.5-0.4-1.8-0.3
		c-1,0.2-2,1.4-3,3.6c-3.4,8-5.3,18-5.7,30.1c2-5.7,4.5-10.4,7.6-14.1c0.7-0.8,1.2-1.2,1.5-1.3c0.1,0,0.6,0.2,1.4,0.5
		c1,0.2,1.5,0.4,1.6,0.5c0.5,0.3,0.8,1,1,1.9c0,0.3,0.1,0.6,0.1,0.9c0.2,3.1-0.2,6.8-1,11.3c0.4-0.8,1.1-2,2-3.5
		c0.2-0.3,0.4-0.5,0.6-0.5s0.3,0.1,0.3,0.3c0,0.3,0,0.6-0.2,0.9c-0.8,1.6-1.8,3.9-3,6.8c-0.1,0.3-0.3,1.1-0.7,2.3
		c-0.1,0.6-0.4,0.9-0.8,1c-0.4,0.1-1.1-0.1-2-0.6c-0.4-0.2-0.5-0.6-0.3-1.1c1.8-7.8,2.6-13.5,2.2-17.1c-0.1-1-0.3-1.5-0.7-1.5
		c-0.2,0-0.6,0.4-1.3,1.1c-1.1,1.2-2.5,3.3-4,6.3c-2,3.9-3.4,7.8-4.2,11.7c-0.2,1.1-0.5,1.7-0.8,1.7s-0.9-0.2-1.9-0.8
		c-0.5-0.3-0.7-0.9-0.7-1.7c0.4-11.1,1.5-20.6,3.6-28.7c1.5-6,3-10.1,4.7-12.1c0.4-0.5,0.8-0.8,1.3-0.9s1.1,0.1,1.9,0.5
		C182.3,77.2,183.2,77.8,184.2,78.4z"/>
	<path class="st1" d="M203.7,108.4c-3.3,5.9-5.8,9-7.5,9.2c-0.8,0.1-1.9-0.3-3.3-1.2c-1.4-0.4-2.1-1.1-2.3-2.1c0-0.2,0-0.4,0-0.6
		c0-2.4,0.2-5,0.7-8c-0.7-0.2-1-0.5-1.1-0.8c0-0.2,0.1-0.4,0.5-0.4c0.3,0,0.6,0,0.9,0.1c1-3.6,2-6.2,3-7.8c0.6-1.1,1.3-1.6,1.9-1.7
		c0.3,0,1,0.1,2.2,0.4c-0.2-0.5-0.1-0.8,0.3-1c0,0,0.4-0.1,1.2-0.2c0.7-0.1,1.1,0,1.2,0.2c0,0.1,0,0.2,0,0.4c0,0.2,0,0.5,0,0.7
		c0.1,0.6,0.2,1.4,0.4,2.3s0.2,1.5,0.3,1.8c0.3,2.1,0,3.7-1.1,4.7c-0.9,0.9-2.1,1.5-3.4,1.7c-0.7,0.1-1.9,0.1-3.5,0
		c-0.2,0.6-0.4,1.6-0.5,3.2c-0.2,2-0.2,3.8,0.1,5.2c0.1,0.9,0.5,1.3,1,1.2c0.2,0,0.5-0.1,0.8-0.3c1.9-1,4.3-3.5,7.3-7.6
		c0.2-0.3,0.4-0.4,0.6-0.4c0.3,0,0.5,0.1,0.6,0.4C203.9,107.9,203.9,108.2,203.7,108.4z M199.1,97.6c-0.1-0.7-0.3-1-0.6-0.9
		c-0.2,0-0.4,0.2-0.8,0.5c-1.5,1.6-2.6,4.2-3.3,7.7c0.3,0,0.9,0,1.8-0.1c1.4-0.2,2.4-0.6,2.9-1.4c0.4-0.6,0.6-1.5,0.5-2.6
		C199.7,101.6,199.5,100.5,199.1,97.6z"/>
	<path class="st1" d="M243.6,83.2c-0.2,1.9-1,4.4-2.4,7.5s-2.8,5.3-4,6.4c-0.9,0.8-1.8,1.3-2.7,1.5c-0.5,0.1-1.9-0.1-4.1-0.7
		c-0.4-0.1-0.7-0.3-0.7-0.5c-0.1-0.3,0.4-0.6,1.3-0.7c1.5-0.2,2.7-0.7,3.4-1.5c1.4-1.5,2.7-3.4,3.9-5.8c1.5-3,2.2-5.9,2.1-8.5
		c0-1.5-0.6-2.3-1.9-2.4c-0.6,0-1.1,0-1.7,0.2c-2.6,0.5-5.1,1.5-7.3,2.9c-1.3,10.6-2.7,19.2-4.1,25.7c0.1-0.1,0.6-0.4,1.4-1.1
		c0.4-0.4,0.8-0.5,1.1-0.6c0.5,0,1.1,0.4,1.7,1.3c0.5,0.7,0.8,1.2,0.8,1.5c0.1,0.5-0.2,0.7-0.8,0.7c-0.4,0-1.1,0.4-2,1
		c-1,0.7-1.8,1.5-2.5,2.4c-0.3,0.4-0.7,0.7-1.1,0.7c-0.6,0.1-1.3-0.2-2.2-0.8c-0.6-0.4-0.9-0.8-0.9-1.2c0-0.3,0.2-0.5,0.7-0.7
		c2.7-10.1,4.5-19.3,5.3-27.5c-5.9,3.8-8.7,7-8.4,9.4c0.1,0.4,0.2,0.7,0.3,1c0.1,0.1,0.3,0.5,0.7,1.2c0.1,0.2,0.2,0.3,0.2,0.5
		c0.1,0.5-0.1,0.7-0.5,0.8c-0.5,0.1-1.8-1.2-3.7-4c-0.3-0.4-0.5-0.8-0.5-1.2c-0.1-1,0.3-2.2,1.4-3.5c0.7-0.9,2.2-2.3,4.4-4
		c2.4-1.8,4.5-3.3,6.4-4.3c0.1-0.9,0.1-1.6,0-2.1c-0.1-0.7,0-1,0.4-1.1c0.5-0.1,1.4,0.4,2.7,1.5c2.7-1.2,4.5-1.9,5.5-2
		c1.9-0.2,3.4,0.5,4.5,2.4c1.1,0.6,1.9,1.1,2.3,1.5c0.5,0.5,0.8,1.1,0.9,1.8C243.7,81.6,243.7,82.3,243.6,83.2z"/>
	<path class="st1" d="M261.3,68.2c0.3,0.1,0.4,0.3,0.5,0.6c0.1,0.3-0.1,0.5-0.6,0.6c-0.2,0-0.4,0-0.6,0c-1-0.4-1.9-0.5-2.7-0.4
		c-0.6,0.1-1,0.3-1.4,0.6c-1.5,1.3-3.4,7.4-5.5,18.2c2.8,0,4.6,0,5.3-0.1c0.4-0.1,0.6,0.1,0.6,0.3c0,0.3-0.1,0.6-0.5,0.7
		c-1.9,0.7-3.9,1.2-5.9,1.6c-1.3,7.2-2.2,13.9-2.6,20c-0.3,4.9-0.4,8.4-0.1,10.4c0,0.2,0.1,0.4,0.2,0.8c0.1,0.3,0.2,0.6,0.2,0.8
		c0,0.3,0,0.4-0.2,0.5c-0.3,0-0.9-0.2-1.9-0.6c-1.2-0.5-1.8-1.2-1.8-2.1c0.3-7.7,1.4-17.5,3.3-29.2c-1.3,0.3-2.1,0.4-2.4,0.5
		c-0.4,0-0.6-0.1-0.8-0.4c-0.3-0.4-0.4-0.7-0.4-0.7c0-0.3,0.2-0.5,0.7-0.7c0.8-0.3,1.5-0.6,2.3-0.9c0.7-0.3,1.1-0.7,1.1-1
		c1.6-8.3,2.9-14,4-17.1c0.9-2.6,2-3.9,3.2-4.1C256.4,66,258.4,66.7,261.3,68.2z"/>
	<path class="st1" d="M272.7,65.1c0.2,0.1,0.4,0.3,0.4,0.5c0,0.3-0.1,0.5-0.5,0.6c-0.2,0-0.4,0-0.6-0.1c-0.8-0.3-1.5-0.4-1.8-0.3
		c-1.1,0.2-2.1,1.4-3,3.6c-3.5,8.2-5.3,18.4-5.5,30.6c0,0.3,0,0.8-0.1,1.3c0.3-0.5,0.8-1.2,1.4-2.2c0.4-0.6,0.6-0.9,0.8-0.9
		c0.4-0.1,0.5,0.2,0.2,0.8c-1.3,2.6-2,5.2-2.1,7.8c-0.1,0.7-0.3,1-0.6,1c-0.1,0-0.3,0-0.6-0.1c-1-0.4-1.5-0.7-1.6-0.8
		c-0.4-0.3-0.6-0.7-0.7-1.2c0-0.3,0-0.6,0-1c0.4-11.1,1.5-20.7,3.5-28.7c1.5-6.1,3-10.1,4.6-12.1c0.4-0.5,0.9-0.9,1.4-0.9
		c0.5-0.1,1.1,0.1,1.9,0.6C270.9,64,271.8,64.6,272.7,65.1z"/>
	<path class="st1" d="M280.4,96.9c-3.3,5.9-5.8,9-7.5,9.2c-0.8,0.1-1.9-0.3-3.3-1.2c-1.4-0.4-2.1-1.1-2.3-2.1c0-0.2,0-0.4,0-0.6
		c0-2.4,0.2-5,0.7-8c-0.7-0.2-1-0.5-1.1-0.8c0-0.2,0.1-0.4,0.5-0.4c0.3,0,0.6,0,0.9,0.1c1-3.6,2-6.2,3-7.8c0.6-1.1,1.3-1.6,1.9-1.7
		c0.3,0,1,0.1,2.2,0.4c-0.2-0.5-0.1-0.8,0.3-1c0,0,0.4-0.1,1.2-0.2c0.7-0.1,1.1,0,1.2,0.2c0,0.1,0,0.2,0,0.4c0,0.2,0,0.5,0,0.7
		c0.1,0.6,0.2,1.4,0.4,2.3c0.2,0.9,0.2,1.5,0.3,1.8c0.3,2.1,0,3.7-1.1,4.7c-0.9,0.9-2.1,1.5-3.4,1.7c-0.7,0.1-1.9,0.1-3.5,0
		c-0.2,0.6-0.4,1.6-0.5,3.2c-0.2,2-0.2,3.8,0.1,5.2c0.1,0.9,0.5,1.3,1,1.2c0.2,0,0.5-0.1,0.8-0.3c1.9-1,4.3-3.5,7.3-7.6
		c0.2-0.3,0.4-0.4,0.6-0.4c0.3,0,0.5,0.1,0.6,0.4C280.6,96.5,280.5,96.7,280.4,96.9z M275.7,86.1c-0.1-0.7-0.3-1-0.6-0.9
		c-0.2,0-0.4,0.2-0.8,0.5c-1.5,1.6-2.6,4.2-3.3,7.7c0.3,0,0.9,0,1.8-0.1c1.4-0.2,2.4-0.6,2.9-1.4c0.4-0.6,0.6-1.5,0.5-2.6
		C276.4,90.2,276.2,89.1,275.7,86.1z"/>
	<path class="st1" d="M298.7,83.2c-1.2,27.8-5.9,42.3-14.3,43.5c-3,0.4-6.5-0.7-10.5-3.5c-0.4-0.3-0.6-0.5-0.6-0.9
		c-0.1-0.5,0.1-0.8,0.6-0.8c0.2,0,0.5,0,0.7,0.2c3.1,1.9,5.8,2.8,8,2.4c7-1,11.3-12.2,12.9-33.4c-2.1,5.3-4.1,9.1-5.8,11.6
		c-0.7,1-1.4,1.5-2.1,1.6c-0.6,0.1-1.4-0.1-2.4-0.7c-1.7-0.6-2.7-1.7-2.9-3.6c-0.2-2.2,0.2-5.1,1.3-8.6c1.1-3.4,2.4-6.1,3.9-8
		c0.8-1.1,1.6-1.6,2.4-1.8c0.6-0.1,1.2,0.1,2,0.5c0.1,0.1,0.9,0.6,2.3,1.5c0.3,0.2,0.4,0.4,0.5,0.6c0,0.3-0.1,0.5-0.5,0.5
		c-0.3,0-0.6,0-0.9-0.1c-0.5-0.2-1.1-0.3-1.6-0.2c-0.7,0.1-1.3,0.5-1.8,1.1c-1.1,1.3-2.1,3.2-3.1,5.9c-1.1,2.9-1.6,5.5-1.6,7.7
		c0,0.6,0,1.1,0.1,1.6c0.2,1.3,0.6,1.8,1.3,1.7c0.5-0.1,0.9-0.4,1.3-0.9c1.8-2,3.4-4.8,4.9-8.4c1.4-3.3,2.3-6.3,2.7-8.9
		c0.2-0.9,0.2-1.8,0-2.6c-0.1-0.6,0-1,0.3-1s1,0.2,2,0.8C298.5,81.4,298.7,82.1,298.7,83.2z"/>
	<path class="st1" d="M315.9,91.6c-3.3,5.9-5.8,9-7.5,9.2c-0.8,0.1-1.9-0.3-3.3-1.2c-1.4-0.4-2.1-1.1-2.3-2.1c0-0.2,0-0.4,0-0.6
		c0-2.4,0.2-5,0.7-8c-0.7-0.2-1-0.5-1.1-0.8c0-0.2,0.1-0.4,0.5-0.4c0.3,0,0.6,0,0.9,0.1c1-3.6,2-6.2,3-7.8c0.6-1.1,1.3-1.6,1.9-1.7
		c0.3,0,1,0.1,2.2,0.4c-0.2-0.5-0.1-0.8,0.3-1c0,0,0.4-0.1,1.2-0.2c0.7-0.1,1.1,0,1.2,0.2c0,0.1,0,0.2,0,0.4c0,0.2,0,0.5,0,0.7
		c0.1,0.6,0.2,1.4,0.4,2.3c0.2,0.9,0.2,1.5,0.3,1.8c0.3,2.1,0,3.7-1.1,4.7c-0.9,0.9-2.1,1.5-3.4,1.7c-0.7,0.1-1.9,0.1-3.5,0
		c-0.2,0.6-0.4,1.6-0.5,3.2c-0.2,2-0.2,3.8,0.1,5.2c0.1,0.9,0.5,1.3,1,1.2c0.2,0,0.5-0.1,0.8-0.3c1.9-1,4.3-3.5,7.3-7.6
		c0.2-0.3,0.4-0.4,0.6-0.4c0.3,0,0.5,0.1,0.6,0.4C316.1,91.2,316,91.4,315.9,91.6z M311.2,80.8c-0.1-0.7-0.3-1-0.6-0.9
		c-0.2,0-0.4,0.2-0.8,0.5c-1.5,1.6-2.6,4.2-3.3,7.7c0.3,0,0.9,0,1.8-0.1c1.4-0.2,2.4-0.6,2.9-1.4c0.4-0.6,0.6-1.5,0.5-2.6
		C311.8,84.9,311.7,83.8,311.2,80.8z"/>
	<path class="st1" d="M341.4,75.3c0.1,0.5,0,1.3-0.3,2.4c-0.2,0.6-0.5,1-0.9,1c-0.3,0-0.7,0-1.5-0.1c-1.2,1.5-2.4,3.4-3.6,5.7
		c0.5-0.1,1.2-0.2,2.1-0.4c0.9-0.2,1.4-0.3,1.6-0.3c0.4-0.1,0.7,0,0.7,0.3c0,0.2-0.1,0.4-0.5,0.5c-1.6,0.6-3.4,1.5-5.6,2.6
		c-1.6,2.8-2.6,4.9-3,6.2c0.6-0.1,2-0.2,4.1-0.2s3.5-0.1,4.3-0.2c1-0.1,1.7-0.7,2.2-1.8c0.1-0.3,0.3-0.4,0.5-0.5
		c0.3-0.1,0.4,0.2,0.3,0.8c-0.1,0.5-0.5,1.5-1.1,3.2c-0.4,1.1-1.2,1.8-2.4,2c-0.8,0.1-2.2,0-4.2-0.3s-3.5-0.4-4.5-0.2
		c-0.4,0.1-0.8,0.1-1.1,0.2c-0.3,1.1-0.7,1.7-1.3,1.9c-0.4,0.1-0.7-0.2-1.1-0.6c-0.4-0.5-0.7-1-0.7-1.4c-0.1-0.4,0-0.8,0.3-1.2
		c0.5-0.8,1.3-1.3,2.2-1.4c1.2-1.9,2.1-3.4,2.6-4.6c-0.1-0.3-0.3-0.8-0.5-1.4c-0.2-0.5-0.3-0.8-0.3-1s0-0.4,0.1-0.5
		c0.2-0.6,1.3-1,3.1-1.3c1.2-2.2,2.4-4.3,3.7-6.2c-1.5-0.2-3.1-0.1-4.7,0.1c-1.1,0.2-1.9,0.5-2.4,1s-1,1.4-1.5,2.6
		c-0.2,0.4-0.4,0.7-0.6,0.7s-0.3-0.1-0.4-0.4c0-0.2,0-0.3,0-0.5c0.3-2,0.7-3.5,1.2-4.6c0.3-0.6,0.5-1.1,0.7-1.2
		c0.3-0.3,1-0.5,1.9-0.7c1.5-0.2,4.2-0.2,8.1,0.2c0.7-0.7,1.1-1.1,1.3-1.1c0.2,0,0.4,0,0.6,0C341.1,74.8,341.4,75,341.4,75.3z"/>
	<path class="st1" d="M361.7,73.4c-1.6,4.5-2.6,9.7-2.9,15.5c0.3-0.9,0.8-2,1.3-3.4c0-0.2,0.2-0.4,0.4-0.4c0.3,0,0.4,0.1,0.5,0.4
		c0,0.1,0,0.2,0,0.3c-0.7,2.6-1.1,4.7-1.3,6c-0.1,0.9-0.3,1.3-0.6,1.4c-0.3,0-1.1-0.2-2.1-0.7c-0.6-0.3-0.9-0.9-0.8-1.9
		c0.2-3.8,0.5-7.1,1.1-10c-2.5,5.8-4.6,10.1-6.5,13c-0.4,0.6-0.9,1-1.5,1.1c-0.5,0.1-1.1,0-1.8-0.3c-1.2,0-1.9-0.6-2-1.6
		c0-0.2,0-0.4,0-0.6c-0.3-4.9,0-9.1,0.8-12.5c-0.2,0.3-0.6,0.8-1.1,1.4c-0.2,0.2-0.4,0.3-0.5,0.2c-0.2-0.1-0.2-0.3,0-0.6
		c0.7-1.5,1.1-2.4,1.2-2.9c0.3-1.4,0.7-2.5,1.2-3.3c0.2-0.4,0.5-0.7,0.9-0.7c0.5-0.1,1.2,0.1,2.1,0.5c0.3,0.1,0.4,0.3,0.4,0.4
		l-0.4,0.9c-0.7,1.4-1.2,3.8-1.7,7.2c-0.5,3.7-0.6,6.6-0.3,8.9c0.1,0.7,0.3,1.1,0.6,1c0.3,0,0.7-0.4,1.2-1.1
		c1.1-1.6,2.6-4.5,4.5-8.7c1.7-3.7,2.7-6.2,3-7.3c0.5-1.8,1-3,1.4-3.3c0.3-0.2,0.5-0.4,0.8-0.4c0.2,0,0.7,0.1,1.5,0.3
		c0.7,0.3,1.1,0.5,1.1,0.6s0,0.1-0.1,0.2C361.8,73.2,361.7,73.3,361.7,73.4z"/>
	<path class="st1" d="M390.7,48.9c0.3,0.1,0.4,0.3,0.5,0.6s-0.1,0.5-0.6,0.6c-0.2,0-0.4,0-0.6,0c-1-0.4-1.9-0.5-2.7-0.4
		c-0.6,0.1-1,0.3-1.4,0.6c-1.5,1.3-3.4,7.4-5.5,18.2c2.8,0,4.6,0,5.3-0.1c0.4-0.1,0.6,0.1,0.7,0.3c0,0.3-0.1,0.6-0.5,0.7
		c-1.9,0.7-3.9,1.2-5.9,1.6c-1.3,7.2-2.2,13.9-2.6,20c-0.3,4.9-0.4,8.4-0.1,10.4c0,0.2,0.1,0.4,0.2,0.8c0.1,0.3,0.2,0.6,0.2,0.8
		c0,0.3,0,0.4-0.2,0.5c-0.3,0-0.9-0.2-1.9-0.6c-1.2-0.5-1.8-1.2-1.8-2.1c0.3-7.7,1.4-17.5,3.3-29.2c-1.3,0.3-2.1,0.4-2.4,0.5
		c-0.4,0-0.6-0.1-0.8-0.4c-0.3-0.4-0.4-0.7-0.4-0.7c0-0.3,0.2-0.5,0.7-0.7c0.8-0.3,1.5-0.6,2.3-0.9c0.7-0.3,1.1-0.7,1.1-1
		c1.6-8.3,2.9-14,4-17.1c0.9-2.6,2-3.9,3.2-4.1C385.8,46.7,387.8,47.4,390.7,48.9z"/>
	<path class="st1" d="M402.9,68.7c-0.9,4.6-1.4,8.3-1.6,11.4c0.2-0.3,0.5-0.7,0.8-1.2c0.3-0.6,0.6-0.9,0.6-1
		c0.2-0.3,0.4-0.5,0.7-0.6c0.3,0,0.4,0.1,0.4,0.3c0,0.2,0,0.3-0.1,0.6c-1.2,2.6-1.9,5.1-2.1,7.6c-0.1,0.7-0.2,1.1-0.5,1.1
		s-0.9-0.1-1.7-0.6c-0.5-0.2-0.8-0.5-0.9-0.6c-0.1-0.2-0.2-0.5-0.2-1.1c0.1-4.4,0.4-8.1,1.1-11.1c-1.1,2.6-2.7,5.6-4.8,8.8
		c-1.8,2.9-3.2,4.7-4.1,5.5c-0.6,0.6-1.1,0.9-1.5,1c-0.3,0-0.8-0.1-1.5-0.5c-1-0.4-1.5-1.1-1.7-2c0-0.2,0-0.4,0-0.6
		c-0.1-2.6,0.6-5.6,2-9.3c1.4-3.6,3.2-6.7,5.3-9.4c0.7-0.9,1.3-1.3,2-1.4c0.6-0.1,1.9,0.6,3.8,1.9c0.2,0.1,0.3,0.2,0.3,0.4
		c0,0.3-0.1,0.4-0.5,0.5c-0.1,0-0.3,0-0.4,0c-1.3-0.3-2.2-0.2-2.9,0.5c-1.4,1.4-2.9,3.7-4.4,7c-1.7,3.7-2.6,7-2.7,9.8
		c0,0.1,0,0.2,0,0.3c0.1,0.4,0.3,0.6,0.6,0.6c0.6-0.1,1.2-0.6,1.9-1.5c1.6-2.1,3.3-4.8,5.1-7.9c1.8-3.2,2.9-5.6,3.3-7.2
		c0.3-1.2,0.5-2,0.5-2.4c0.1-0.8,0.3-1.2,0.5-1.2c0.3,0,0.9,0.2,1.9,0.8c0.4,0.2,0.7,0.5,0.8,0.7C403.1,67.8,403,68.2,402.9,68.7z"
		/>
	<path class="st1" d="M412.6,66.9c-0.1,2.3-0.6,6.3-1.5,11.9c0.4-0.5,1-1.4,1.7-2.7c0.1-0.2,0.2-0.3,0.3-0.3c0.3,0,0.3,0.2,0.2,0.7
		c-0.1,0.2-0.6,1.5-1.6,3.8c-0.8,1.8-1.3,3.3-1.6,4.7c-0.1,0.4-0.3,0.6-0.8,0.7c-0.4,0.1-1-0.1-1.7-0.3c-0.5-0.2-0.7-0.3-0.7-0.4
		s0-0.3,0.2-0.7c0.7-1.7,1.3-4.6,1.8-8.5c0.5-3.8,0.7-6.6,0.6-8.4c-0.1-0.8-0.2-1.1-0.4-1.1c-0.2,0-0.4,0.2-0.7,0.7l-1.4,1.7
		c-0.5,0.6-0.8,0.7-0.8,0.2c0-0.1,0-0.3,0.2-0.5c0.6-1.2,1.3-2.4,2.1-3.6c0.2-0.3,0.5-0.5,0.7-0.5c0.3,0,0.7,0.1,1.3,0.4
		c0.8,0.1,1.3,0.1,1.4,0.2c0.4,0.2,0.7,0.6,0.8,1.2C412.6,66.2,412.6,66.5,412.6,66.9z M414.5,55.3c0.3,0.2,0.5,0.4,0.5,0.6
		c0.1,0.5-0.5,1.4-1.8,2.6c-0.9,0.8-1.8,1.2-2.7,1.1c-0.5,0-1-0.1-1.4-0.4c-0.1-0.1-0.2-0.2-0.3-0.3c-0.1-0.1-0.1-0.2-0.1-0.3
		s0.1-0.1,0.3-0.1c1.4-1.6,2.2-2.7,2.6-3.4c0.3-0.5,0.6-0.8,0.7-0.8C412.7,54.4,413.4,54.7,414.5,55.3z"/>
	<path class="st1" d="M431.1,62.3c0.3,2.2,0.4,4.4,0.1,6.5c-0.1,0.6-0.3,1-0.6,1c-0.2,0-0.8-0.2-1.7-0.8c-0.5-0.3-0.6-0.7-0.5-1.4
		c0.2-1.6,0.3-2.9,0.2-3.8c0-0.3-0.1-0.5-0.3-0.5c-0.2,0-0.5,0.4-0.9,1.1c-2.8,5.1-4.7,10.7-5.6,16.6c-0.3,1.9-0.6,2.9-1,2.9
		c-0.2,0-0.9-0.2-2.1-0.6c-0.6-0.2-0.9-0.7-0.8-1.6c0.5-6.1,1.2-11.2,2.1-15.5c-1.1,1.5-1.7,2.5-2,3.1c-0.1,0.2-0.3,0.4-0.5,0.4
		c-0.3,0-0.5-0.1-0.5-0.3c0-0.2,0-0.3,0.1-0.5c0.7-1.1,1.6-2.8,2.6-5.1c0.3-0.8,0.7-1.2,1.1-1.3c0.3,0,1,0.1,2,0.4
		c0.6,0.2,0.7,0.5,0.4,1.1c-0.3,0.5-0.7,2.4-1.3,5.5c-0.6,3-0.9,5.4-1,7.1c1.5-5.5,3.5-10.4,5.8-14.8c0.4-0.8,0.8-1.3,1.2-1.3
		c0.3,0,0.8,0.1,1.3,0.4c0.7,0,1.2,0,1.4,0.1C430.8,61.3,431,61.7,431.1,62.3z"/>
	<path class="st1" d="M446.4,72.2c-3.3,5.9-5.8,9-7.5,9.2c-0.8,0.1-1.9-0.3-3.3-1.2c-1.4-0.4-2.1-1.1-2.3-2.1c0-0.2,0-0.4,0-0.6
		c0-2.4,0.2-5,0.7-8c-0.7-0.2-1-0.5-1.1-0.8c0-0.2,0.1-0.4,0.5-0.4c0.3,0,0.6,0,0.9,0.1c1-3.6,2-6.2,3-7.8c0.6-1.1,1.3-1.6,1.9-1.7
		c0.3,0,1,0.1,2.2,0.4c-0.2-0.5-0.1-0.8,0.3-1c0,0,0.4-0.1,1.2-0.2c0.7-0.1,1.1,0,1.2,0.2c0,0.1,0,0.2,0,0.4s0,0.5,0,0.7
		c0.1,0.6,0.2,1.4,0.4,2.3c0.2,0.9,0.2,1.5,0.3,1.8c0.3,2.1,0,3.7-1.1,4.7c-0.9,0.9-2.1,1.5-3.4,1.7c-0.7,0.1-1.9,0.1-3.5,0
		c-0.2,0.6-0.4,1.6-0.5,3.2c-0.2,2-0.2,3.8,0.1,5.2c0.1,0.9,0.5,1.3,1,1.2c0.2,0,0.5-0.1,0.8-0.3c1.9-1,4.3-3.5,7.3-7.6
		c0.2-0.3,0.4-0.4,0.6-0.4c0.3,0,0.5,0.1,0.6,0.4C446.6,71.7,446.5,71.9,446.4,72.2z M441.8,61.4c-0.1-0.7-0.3-1-0.6-0.9
		c-0.2,0-0.4,0.2-0.8,0.5c-1.5,1.6-2.6,4.2-3.3,7.7c0.3,0,0.9,0,1.8-0.1c1.4-0.2,2.4-0.6,2.9-1.4c0.4-0.6,0.6-1.5,0.5-2.6
		C442.4,65.4,442.2,64.3,441.8,61.4z"/>
	<path class="st1" d="M467.5,67.2c-0.8,1.7-1.8,4.1-3,7.3c-0.2,0.8-0.4,1.6-0.5,2.4c-0.2,0.6-0.4,0.9-0.8,0.9c-0.3,0-0.8,0-1.4-0.2
		c-0.7-0.2-1.1-0.4-1.1-0.7c0-0.1,0.1-0.4,0.2-0.8c0.8-2.4,1.3-5.3,1.7-8.8c0.4-3.6,0.4-6.4,0-8.2c-0.1-0.7-0.4-1.1-0.7-1
		c-0.2,0-0.5,0.3-0.9,0.8c-3.6,4.8-6.5,10.9-8.6,18.4c-0.3,0.9-0.7,1.4-1.2,1.5c-0.4,0.1-1-0.1-2-0.4c-0.4-0.1-0.6-0.2-0.6-0.4
		c0-0.1,0-0.3,0.2-0.8c0.7-2.3,1.2-5.2,1.7-8.6c0.5-3.7,0.7-6.6,0.5-8.6c-0.1-0.6-0.1-0.9-0.2-0.9c0,0-0.2,0.3-0.6,0.8
		s-0.9,1.2-1.6,2.1c-0.1,0.2-0.3,0.3-0.5,0.3s-0.4,0-0.4-0.2c0-0.1,0-0.3,0.2-0.5c0.6-1,1.4-2.3,2.4-3.9c0.2-0.3,0.5-0.5,0.7-0.6
		c0.4-0.1,0.8,0.2,1.2,0.7c1.4,0.2,2.2,0.7,2.2,1.6c0.1,1.9-0.4,5.4-1.4,10.5c0.8-2.4,2.1-5,3.9-8.1c1.8-3,3.1-4.9,4.1-5.5
		c0.5-0.3,0.8-0.5,1.1-0.5c0.2,0,0.6,0.1,1.2,0.4c1.5,0.3,2.3,1,2.4,2.1c0.2,1.2,0.2,3.1,0,5.9c-0.1,2.2-0.3,4-0.5,5.2
		c0.4-0.7,0.9-1.6,1.5-2.7c0.1-0.2,0.2-0.3,0.4-0.3c0.3,0,0.4,0.1,0.5,0.4C467.5,67,467.5,67.1,467.5,67.2z"/>
	<path class="st1" d="M508.2,43.7c-0.2,1.9-1,4.4-2.4,7.5s-2.8,5.3-4,6.4c-0.9,0.8-1.8,1.3-2.7,1.5c-0.5,0.1-1.9-0.1-4.1-0.7
		c-0.4-0.1-0.7-0.3-0.7-0.5c0-0.3,0.4-0.6,1.3-0.7c1.5-0.2,2.7-0.7,3.4-1.5c1.4-1.5,2.7-3.4,3.9-5.8c1.5-3,2.2-5.9,2.1-8.5
		c0-1.5-0.6-2.3-1.9-2.4c-0.6,0-1.1,0-1.7,0.2c-2.6,0.5-5.1,1.5-7.3,2.9c-1.3,10.6-2.7,19.2-4.1,25.7c0.1-0.1,0.6-0.4,1.4-1.1
		c0.4-0.4,0.8-0.5,1.1-0.6c0.5,0,1.1,0.4,1.7,1.3c0.5,0.7,0.8,1.2,0.8,1.5c0.1,0.5-0.2,0.7-0.8,0.7c-0.4,0-1.1,0.4-2,1
		c-1,0.7-1.8,1.5-2.5,2.4c-0.3,0.4-0.7,0.7-1.1,0.7c-0.6,0.1-1.3-0.2-2.2-0.8c-0.6-0.4-0.9-0.8-0.9-1.2c0-0.3,0.2-0.5,0.7-0.7
		c2.7-10.1,4.5-19.3,5.3-27.5c-5.9,3.8-8.7,7-8.4,9.4c0.1,0.4,0.2,0.7,0.3,1c0.1,0.1,0.3,0.5,0.7,1.2c0.1,0.2,0.2,0.3,0.2,0.5
		c0.1,0.5-0.1,0.7-0.5,0.8c-0.5,0.1-1.8-1.2-3.7-4c-0.3-0.4-0.5-0.8-0.5-1.2c-0.1-1,0.3-2.2,1.4-3.5c0.7-0.9,2.2-2.3,4.4-4
		c2.4-1.8,4.5-3.3,6.4-4.3c0.1-0.9,0.1-1.6,0-2.1c-0.1-0.7,0-1,0.4-1.1c0.5-0.1,1.4,0.4,2.7,1.5c2.7-1.2,4.5-1.9,5.5-2
		c1.9-0.2,3.4,0.5,4.5,2.4c1.1,0.6,1.9,1.1,2.3,1.5c0.5,0.5,0.8,1.1,0.9,1.8C508.3,42.1,508.3,42.8,508.2,43.7z"/>
	<path class="st1" d="M523.4,48.5c0.3,2.2,0.4,4.4,0.1,6.5c-0.1,0.6-0.3,1-0.6,1c-0.2,0-0.8-0.2-1.7-0.8c-0.5-0.3-0.6-0.7-0.5-1.4
		c0.2-1.6,0.3-2.9,0.2-3.8c0-0.3-0.1-0.5-0.3-0.5s-0.5,0.4-0.9,1.1c-2.8,5.1-4.7,10.7-5.6,16.6c-0.3,1.9-0.6,2.9-1,2.9
		c-0.2,0-0.9-0.2-2.1-0.6c-0.6-0.2-0.9-0.7-0.8-1.6c0.5-6.1,1.2-11.2,2.1-15.5c-1.1,1.5-1.7,2.5-2,3.1c-0.1,0.2-0.3,0.4-0.5,0.4
		c-0.3,0-0.5-0.1-0.5-0.3s0-0.3,0.1-0.5c0.7-1.1,1.6-2.8,2.6-5.1c0.3-0.8,0.7-1.2,1.1-1.3c0.3,0,1,0.1,2,0.4
		c0.6,0.2,0.7,0.5,0.4,1.1c-0.3,0.5-0.7,2.4-1.3,5.5c-0.6,3-0.9,5.4-1,7.1c1.5-5.5,3.5-10.4,5.8-14.8c0.4-0.8,0.8-1.3,1.2-1.3
		c0.3,0,0.8,0.1,1.3,0.4c0.7,0,1.2,0,1.4,0.1C523.2,47.5,523.4,47.9,523.4,48.5z"/>
	<path class="st1" d="M538.7,58.4c-3.3,5.9-5.8,9-7.5,9.2c-0.8,0.1-1.9-0.3-3.3-1.2c-1.4-0.4-2.1-1.1-2.3-2.1c0-0.2,0-0.4,0-0.6
		c0-2.4,0.2-5,0.7-8c-0.7-0.2-1-0.5-1.1-0.8c0-0.2,0.1-0.4,0.5-0.4c0.3,0,0.6,0,0.9,0.1c1-3.6,2-6.2,3-7.8c0.6-1.1,1.3-1.6,1.9-1.7
		c0.3,0,1,0.1,2.2,0.4c-0.2-0.5-0.1-0.8,0.3-1c0,0,0.4-0.1,1.2-0.2c0.7-0.1,1.1,0,1.2,0.2c0,0.1,0,0.2,0,0.4s0,0.5,0,0.7
		c0.1,0.6,0.2,1.4,0.4,2.3c0.2,0.9,0.2,1.5,0.3,1.8c0.3,2.1,0,3.7-1.1,4.7c-0.9,0.9-2.1,1.5-3.4,1.7c-0.7,0.1-1.9,0.1-3.5,0
		c-0.2,0.6-0.4,1.6-0.5,3.2c-0.2,2-0.2,3.8,0.1,5.2c0.1,0.9,0.5,1.3,1,1.2c0.2,0,0.5-0.1,0.8-0.3c1.9-1,4.3-3.5,7.3-7.6
		c0.2-0.3,0.4-0.4,0.6-0.4c0.3,0,0.5,0.1,0.6,0.4C538.9,57.9,538.9,58.2,538.7,58.4z M534.1,47.6c-0.1-0.7-0.3-1-0.6-0.9
		c-0.2,0-0.4,0.2-0.8,0.5c-1.5,1.6-2.6,4.2-3.3,7.7c0.3,0,0.9,0,1.8-0.1c1.4-0.2,2.4-0.6,2.9-1.4c0.4-0.6,0.6-1.5,0.5-2.6
		C534.7,51.6,534.5,50.6,534.1,47.6z"/>
	<path class="st1" d="M546.4,47c-0.1,2.3-0.6,6.3-1.5,11.9c0.4-0.5,1-1.4,1.7-2.7c0.1-0.2,0.2-0.3,0.3-0.3c0.3,0,0.3,0.2,0.2,0.7
		c-0.1,0.2-0.6,1.5-1.6,3.8c-0.8,1.8-1.3,3.3-1.6,4.7c-0.1,0.4-0.3,0.6-0.8,0.7c-0.4,0.1-1-0.1-1.7-0.3c-0.5-0.2-0.7-0.3-0.7-0.4
		s0-0.3,0.2-0.7c0.7-1.7,1.3-4.6,1.8-8.5c0.5-3.8,0.7-6.6,0.6-8.4c-0.1-0.8-0.2-1.1-0.4-1.1s-0.4,0.2-0.7,0.7l-1.4,1.7
		c-0.5,0.6-0.8,0.7-0.8,0.2c0-0.1,0-0.3,0.2-0.5c0.6-1.2,1.3-2.4,2.1-3.6c0.2-0.3,0.5-0.5,0.7-0.5c0.3,0,0.7,0.1,1.3,0.4
		c0.8,0.1,1.3,0.1,1.4,0.2c0.4,0.2,0.7,0.6,0.8,1.2C546.4,46.2,546.4,46.6,546.4,47z M548.4,35.3c0.3,0.2,0.5,0.4,0.5,0.6
		c0.1,0.5-0.5,1.4-1.8,2.6c-0.9,0.8-1.8,1.2-2.7,1.1c-0.5,0-1-0.1-1.4-0.4c-0.1-0.1-0.2-0.2-0.3-0.3s-0.1-0.2-0.1-0.3
		s0.1-0.1,0.3-0.1c1.4-1.6,2.2-2.7,2.6-3.4c0.3-0.5,0.6-0.8,0.7-0.8C546.5,34.5,547.2,34.7,548.4,35.3z"/>
	<path class="st1" d="M558.9,56.9c0.4,2-0.6,3.6-2.8,4.7c-0.2,0.8-0.4,1.3-0.6,1.6c-0.3,0.5-0.9,0.8-1.6,1c-0.5,0.1-1,0.2-1.6,0.2
		c-1,0-2.3,0-3.8,0c-0.4,0-0.7-0.2-0.8-0.6c0-0.5,0.4-0.8,1.3-1c1.2-0.3,2.9-0.7,5.2-1.4c0.9-0.3,1.4-0.9,1.7-1.8
		c0.2-0.4,0.2-1,0.1-1.5c-0.2-1.1-1-2.9-2.4-5.4s-2.2-4.2-2.3-5c-0.2-2.1,1.6-3.9,5.2-5.3c0.4-0.1,0.6,0,0.6,0.3
		c0,0.2-0.1,0.4-0.3,0.5c-1.7,1.1-2.5,2.2-2.3,3.4c0.1,0.5,0.2,1,0.5,1.7s1,2.2,2.3,4.7C558.2,54.5,558.7,55.9,558.9,56.9z
		 M560.7,41.7c0.1,0.8,0.1,2-0.1,3.8c-0.1,0.6-0.2,1-0.3,1.2c-0.1,0.1-0.3,0.3-0.8,0.5c-0.6,0.3-1,0.5-1.1,0.5
		c-0.3,0-0.4-0.1-0.5-0.5c0-0.2,0-0.4,0-0.8c0.2-1.7,0.1-2.9-0.1-3.6c-0.2-0.6-0.1-1.1,0.4-1.3c0.8-0.5,1.3-0.8,1.5-0.9
		C560.3,40.6,560.6,41,560.7,41.7z"/>
	<path class="st1" d="M576.6,52.7c-3.3,5.9-5.8,9-7.5,9.2c-0.8,0.1-1.9-0.3-3.3-1.2c-1.4-0.4-2.1-1.1-2.3-2.1c0-0.2,0-0.4,0-0.6
		c0-2.4,0.2-5,0.7-8c-0.7-0.2-1-0.5-1.1-0.8c0-0.2,0.1-0.4,0.5-0.4c0.3,0,0.6,0,0.9,0.1c1-3.6,2-6.2,3-7.8c0.6-1.1,1.3-1.6,1.9-1.7
		c0.3,0,1,0.1,2.2,0.4c-0.2-0.5-0.1-0.8,0.3-1c0,0,0.4-0.1,1.2-0.2c0.7-0.1,1.1,0,1.2,0.2c0,0.1,0,0.2,0,0.4s0,0.5,0,0.7
		c0.1,0.6,0.2,1.4,0.4,2.3c0.2,0.9,0.2,1.5,0.3,1.8c0.3,2.1,0,3.7-1.1,4.7c-0.9,0.9-2.1,1.5-3.4,1.7c-0.7,0.1-1.9,0.1-3.5,0
		c-0.2,0.6-0.4,1.6-0.5,3.2c-0.2,2-0.2,3.8,0.1,5.2c0.1,0.9,0.5,1.3,1,1.2c0.2,0,0.5-0.1,0.8-0.3c1.9-1,4.3-3.5,7.3-7.6
		c0.2-0.3,0.4-0.4,0.6-0.4c0.3,0,0.5,0.1,0.6,0.4C576.8,52.3,576.8,52.5,576.6,52.7z M572,41.9c-0.1-0.7-0.3-1-0.6-0.9
		c-0.2,0-0.4,0.2-0.8,0.5c-1.5,1.6-2.6,4.2-3.3,7.7c0.3,0,0.9,0,1.8-0.1c1.4-0.2,2.4-0.6,2.9-1.4c0.4-0.6,0.6-1.5,0.5-2.6
		C572.6,46,572.4,44.9,572,41.9z"/>
	<path class="st1" d="M597.7,47.7c-0.8,1.7-1.8,4.1-3,7.3c-0.2,0.8-0.4,1.6-0.5,2.4c-0.2,0.6-0.4,0.9-0.8,0.9c-0.3,0-0.8,0-1.4-0.2
		c-0.7-0.2-1.1-0.4-1.1-0.7c0-0.1,0.1-0.4,0.2-0.8c0.8-2.4,1.3-5.3,1.7-8.8c0.4-3.6,0.4-6.4,0-8.2c-0.1-0.7-0.4-1.1-0.7-1
		c-0.2,0-0.5,0.3-0.9,0.8c-3.6,4.8-6.5,10.9-8.6,18.4c-0.3,0.9-0.7,1.4-1.2,1.5c-0.4,0.1-1-0.1-2-0.4c-0.4-0.1-0.6-0.2-0.6-0.4
		c0-0.1,0-0.3,0.2-0.8c0.7-2.3,1.2-5.2,1.7-8.6c0.5-3.7,0.7-6.6,0.5-8.6c-0.1-0.6-0.1-0.9-0.2-0.9c0,0-0.2,0.3-0.6,0.8
		s-0.9,1.2-1.6,2.1c-0.1,0.2-0.3,0.3-0.5,0.3s-0.4,0-0.4-0.2c0-0.1,0-0.3,0.2-0.5c0.6-1,1.4-2.3,2.4-3.9c0.2-0.3,0.5-0.5,0.7-0.6
		c0.4-0.1,0.8,0.2,1.2,0.7c1.4,0.2,2.2,0.7,2.2,1.6c0.1,1.9-0.4,5.4-1.4,10.5c0.8-2.4,2.1-5,3.9-8.1c1.8-3,3.1-4.9,4.1-5.5
		c0.5-0.3,0.8-0.5,1.1-0.5c0.2,0,0.6,0.1,1.2,0.4c1.5,0.3,2.3,1,2.5,2.1c0.2,1.2,0.2,3.1,0,5.9c-0.1,2.2-0.3,4-0.5,5.2
		c0.4-0.7,0.9-1.6,1.5-2.7c0.1-0.2,0.2-0.3,0.4-0.3c0.3,0,0.4,0.1,0.5,0.4C597.7,47.5,597.7,47.6,597.7,47.7z"/>
</g>
<g class="st2">
	<path class="st3" d="M64.7,134.9c-0.1,0.3-0.2,0.5-0.6,0.6c-0.3,0-0.5-0.1-0.7-0.4c0-0.1-0.2-0.2-0.2-0.4c-0.1-0.1-0.6-0.3-1.2-0.4
		c-3.9-0.6-7.3-0.8-10.3-0.4c-0.5,0.1-1,0.1-1.4,0.2c-0.2,0.3-0.6,0.7-1,1.3c-0.2,0.3-0.6,0.3-1.3,0.3c-0.7-0.2-1-0.4-1-0.9
		c0-1,0-1.8,0.2-2.6c0.2-0.7,0.6-1.1,1.4-1.2c0.1,0,0.9,0,2.5-0.1c2.6-2.8,4.9-5.8,6.8-9c1.1-1.7,1.3-3.4,1.1-5.1
		c-0.1-0.5-0.1-0.9-0.3-1.1c-0.3-0.2-0.7-0.4-1.3-0.3c-0.3,0-0.5,0.1-0.8,0.1c-1.6,0.4-3.4,1.6-5.3,3.5c-0.5,0.5-0.7,0.9-0.6,1.3
		c0,0,0.2,0.4,0.4,1.1c0.2,0.4,0.1,0.6-0.2,0.7s-0.5-0.1-0.8-0.3c-0.4-0.3-0.9-0.7-1.5-1.2c-0.5-0.6-0.8-0.9-0.8-1.3
		c-0.1-0.4,0.1-0.8,0.5-1.1c3.7-3.5,6.7-5.4,8.9-5.7c0.5-0.1,1.1,0.4,1.9,1.3c1.1-0.4,1.5-0.6,1.4-0.6c0.6-0.1,1,0.8,1.2,2.4
		c0.2,1.4,0.2,2.4,0.2,3c-0.2,1.1-0.8,2.3-2.1,3.9c-2.4,3.2-4.6,6-6.9,8.4c3.4-0.2,6.9,0.1,10.4,1c0.9,0.3,1.4,0.7,1.5,1.5
		C64.8,133.7,64.8,134.1,64.7,134.9z"/>
	<path class="st3" d="M82.4,127.2c0.2,0.4,0.2,0.6,0.2,0.7c0.1,0.5-0.3,0.8-1.2,1.1c-0.9,0.3-1.9,0.5-3.2,0.7
		c-0.1,2-0.1,3.9-0.1,5.7c0.1,0.4,0.1,0.6,0.1,0.8c0.1,0.1,0.2,0.2,0.3,0.2c0,0.1,0,0.1,0,0.3c0.1,0.4-0.2,0.7-0.6,0.7
		c-0.1,0-0.1,0-0.3,0c-0.5-0.1-1.2-0.4-1.9-0.6c-0.3-0.2-0.5-0.5-0.5-0.8s0.1-2.4,0.5-5.8c-4.1,0.7-7.3,1.1-9.3,1.2
		c-0.1,0.4-0.2,0.7-0.3,0.7c-0.1,0.1-0.4,0.1-0.9,0.1c-0.4-0.1-0.5-0.2-0.7-0.3c-0.2-0.2-0.4-0.9-0.5-1.8c-0.1-0.8,0.1-1.2,0.7-1.4
		c0.9-1,1.8-2.2,2.5-3.3c1.8-2.7,3.2-5.3,3.9-7.7l-1.4-1.6c0-0.1-0.1-0.1-0.2-0.2c-0.1-0.4,0.2-0.5,0.8-0.5c0.1,0,0.5-0.3,0.7-0.7
		c0.5-1.1,1.2-2.5,1.9-4.2c0.1-0.4,0.3-0.6,0.7-0.6c0.3,0,0.8,0.1,1.6,0.4c0.3,0.1,0.6,0.3,0.6,0.6s-0.1,0.5-0.1,1.1
		c-0.7,2.6-1.9,5.7-3.8,9.3c-1.5,3.1-3,5.5-4.4,7.1c-0.2,0.3,0.1,0.4,0.6,0.4c3.1,0,5.8-0.3,7.8-0.8c0.5-4,1.1-7.3,1.9-10
		c0.3-0.8,0.5-1.2,1-1.6c0.1,0,0.4-0.1,1-0.1c0.4-0.1,0.7,0,0.7,0.2c0,0.1-0.1,0.3-0.3,0.6c-0.4,0.6-0.9,2.1-1.2,4.3
		c-0.4,2-0.6,4-0.8,6.1c1.3-0.2,2-0.5,2.2-1.2c0-0.1,0.1-0.3,0.5-0.5c0.3,0,0.5,0.1,0.7,0.3C82,126.1,82.2,126.6,82.4,127.2z"/>
	<path class="st3" d="M111.5,119.6c0.3,2.4-0.7,4.7-2.9,6.4c-0.6,1.3-1.4,1.9-2.6,2.1c-2,0.3-4.3-0.3-7.1-1.7
		c-2.4-1.2-4-2.4-5.1-3.7c-0.9-1.2-1.5-2-1.5-2.3c-0.1-0.4,0.1-0.9,0.7-1.5c0.4-0.6,0.9-0.9,1.3-1c0.3,0,0.5,0.2,0.6,0.6
		c0,0.1,0.1,0.4,0,0.7c1,1.8,2.8,3.4,5.4,4.9c2.5,1.3,4.8,1.9,6.6,1.7c1.7-0.2,2.4-1.5,2.1-3.8c-0.2-1.3-1.5-3.6-4-7
		c-2.4-3.4-3.8-6-4.1-7.6c-0.1-1,0-2.1,0.5-2.9c0.4-0.7,1.2-1.7,2.3-2.8c0.2-0.2,0.5-0.3,0.6-0.3c0.4-0.1,0.5,0.1,0.6,0.4
		c0,0.3-0.1,0.4-0.3,0.7c-0.9,1.2-1.2,2.4-1,3.8c0.2,1.5,1.6,4.1,4,7.4C110.1,116.5,111.3,118.7,111.5,119.6z M115,100.1
		c-0.2,2-0.8,3.6-1.5,5.2c-0.3,0.7-0.6,1-1,1.1c-0.4,0.1-1.1-0.1-1.9-0.6c-0.3-0.1-0.4-0.3-0.5-0.5c0-0.3,0.2-0.5,0.7-0.7
		c0.4-0.2,0.7-0.9,0.9-1.9c0.2-1.1,0.4-2,0.3-2.6c-0.1-0.6-0.4-0.9-0.9-0.8c-0.1,0-0.4,0.1-0.6,0.2c-0.5,0.2-1.6,0.6-3.3,1.5
		c-0.2,0.2-0.4,0.2-0.5,0.2c-0.4,0.1-0.7,0-0.7-0.3c0-0.3,0.2-0.5,0.6-0.7c1.4-1,2.9-1.8,4.2-2.5c0.5-0.2,0.7-0.4,1-0.4
		c0.3,0,0.8,0.3,1.5,1.1c0.8,0.1,1.3,0.2,1.5,0.3c0.1,0,0.3,0.2,0.3,0.6C115,99.3,115.1,99.7,115,100.1z"/>
	<path class="st3" d="M123.7,97.7c0.4,0.2,0.6,0.3,0.6,0.6c0,0.1-0.1,0.3-0.3,0.3c0,0-0.1,0-0.3,0c-0.1,0-0.3,0-0.3,0
		c-0.5,0.1-1.1,0.7-1.7,1.9c-0.5,1.1-1.1,3.4-1.8,6.9c-0.1,0.3-0.1,0.5-0.1,0.5c0,0.1,0.3,0.1,0.5,0.1c0.8,0,1.9-0.3,3.2-0.6
		c0.5-0.1,0.7,0,0.7,0.6c0,0.3-0.1,0.5-0.4,0.6c-0.3,0-1.8,0.4-4.4,1c-1,5-1.3,9.2-1.3,12.6c0,0.1,0.1,0.4,0.1,0.5
		c0.1,0.5,0.2,0.6,0.5,0.6c0.4-0.1,1.4-1.1,3-3.1c0.2-0.3,0.3-0.4,0.6-0.5c0.1,0,0.3,0.1,0.4,0.2c0,0.1,0.1,0.4-0.1,0.5
		c-1,1.6-1.8,3-2.7,4.1c-0.5,0.5-0.7,0.7-1.1,0.8c-0.4,0.1-0.8-0.1-1.5-0.6c-0.8-0.1-1.2-0.5-1.3-1.1c0-0.1,0-0.3-0.1-0.4
		c0-3.5,0.5-8,1.2-13.3c-0.8,0-1.4,0.1-2,0c-0.3,0-0.4-0.2-0.5-0.5c0-0.3,0.1-0.5,0.3-0.6c0.2-0.2,0.7-0.4,1.5-0.6
		c0.5-0.2,0.8-0.5,1.2-0.8c0.8-4.7,1.5-7.8,2.2-9.2c0.4-0.8,0.9-1.3,1.4-1.4C121.8,97.2,122.6,97.3,123.7,97.7z"/>
	<path class="st3" d="M139,107c-1.3,3.6-2.2,7.7-2.5,12.3c0.3-0.7,0.7-1.7,1.1-2.8c0.1-0.1,0.1-0.3,0.3-0.3c0.3,0,0.3,0.1,0.3,0.3
		c0,0.1,0,0.1,0,0.3c-0.6,2-0.9,3.6-1,4.8c0,0.7-0.2,1.1-0.5,1.1c-0.3,0-0.8-0.1-1.6-0.6c-0.4-0.2-0.6-0.7-0.6-1.5
		c0.1-3,0.5-5.7,1-8c-2,4.6-3.8,8.1-5.3,10.4c-0.3,0.6-0.7,0.7-1.2,0.8c-0.4,0.1-0.8,0-1.5-0.3c-0.9,0-1.5-0.4-1.6-1.2
		c0-0.1,0-0.3-0.1-0.5c-0.1-3.9,0-7.3,0.8-10c-0.2,0.3-0.6,0.6-0.9,1c-0.1,0.1-0.2,0.2-0.4,0.2c-0.1-0.1-0.2-0.2-0.1-0.5
		c0.6-1.1,0.9-1.9,1-2.4c0.2-1.1,0.6-2,0.9-2.6c0.2-0.3,0.5-0.5,0.7-0.5c0.4-0.1,0.9,0.1,1.8,0.4c0.1,0.1,0.3,0.2,0.3,0.3l-0.4,0.7
		c-0.5,1.1-1,3-1.4,5.8c-0.4,2.9-0.6,5.3-0.3,7.1c0.1,0.6,0.3,0.9,0.5,0.8c0.3,0,0.5-0.3,0.9-0.9c0.9-1.3,2.1-3.5,3.6-6.9
		c1.4-2.9,2.2-4.9,2.5-5.8c0.4-1.5,0.8-2.3,1.2-2.6c0.2-0.2,0.5-0.3,0.6-0.3c0.1,0,0.5,0.1,1.2,0.2c0.5,0.2,0.8,0.4,0.9,0.5
		c0,0,0,0.1-0.1,0.1C139,106.9,139,106.9,139,107z"/>
	<path class="st3" d="M156.4,112.3c-0.6,1.4-1.5,3.3-2.5,5.8c-0.2,0.7-0.3,1.3-0.5,1.9c-0.1,0.4-0.3,0.7-0.7,0.7
		c-0.3,0-0.7,0-1.1-0.1c-0.5-0.2-0.8-0.3-0.9-0.5c0-0.1,0.1-0.3,0.2-0.7c0.6-1.9,1.1-4.2,1.4-7c0.4-2.9,0.3-5.1,0-6.5
		c-0.1-0.6-0.3-0.9-0.5-0.8c-0.1,0-0.4,0.2-0.7,0.6c-3,3.8-5.3,8.7-7,14.6c-0.2,0.7-0.5,1.1-1,1.2c-0.3,0-0.8,0-1.6-0.3
		c-0.3-0.1-0.4-0.2-0.4-0.3c0,0,0.1-0.3,0.2-0.5c0.5-1.8,1-4.2,1.4-6.8c0.4-2.9,0.6-5.3,0.5-6.8c-0.1-0.5-0.1-0.8-0.1-0.8
		s-0.2,0.2-0.4,0.6c-0.3,0.4-0.8,1-1.3,1.6c-0.1,0-0.3,0-0.4,0.1c-0.1,0-0.3-0.1-0.3-0.2s0.1-0.3,0.2-0.4c0.5-0.9,1.2-1.9,1.9-3.1
		c0.2-0.3,0.3-0.4,0.6-0.5c0.4-0.1,0.7,0.2,1,0.6c1.2,0.2,1.8,0.5,1.7,1.3c0.1,1.6-0.3,4.3-1.2,8.4c0.6-1.9,1.7-4,3.1-6.4
		s2.6-3.9,3.3-4.4c0.4-0.2,0.7-0.4,0.9-0.4c0.1,0,0.5,0.1,1,0.4c1.2,0.2,1.8,0.8,1.9,1.7c0.1,0.9,0.1,2.5,0,4.7
		c-0.1,1.8-0.3,3.2-0.5,4.2c0.3-0.6,0.7-1.3,1.3-2.1c0.1-0.1,0.2-0.3,0.3-0.3c0.3,0,0.3,0.1,0.3,0.3
		C156.5,112,156.5,112.1,156.4,112.3z"/>
	<path class="st3" d="M180.3,84.1c0.1,0.1,0.3,0.2,0.3,0.3c0,0.3-0.1,0.4-0.5,0.5c-0.1,0-0.3,0-0.4-0.1c-0.7-0.2-1.2-0.4-1.5-0.3
		c-0.9,0.1-1.7,1-2.5,2.8c-2.9,6.6-4.4,15.1-4.8,25.4c0.3-0.4,0.6-1,1.2-1.7c0.3-0.4,0.6-0.7,0.7-0.7c0.4-0.1,0.4,0.2,0.2,0.6
		c-1,2-1.7,4-1.7,6.2c-0.1,0.5-0.3,0.8-0.5,0.9c-0.1,0-0.3,0-0.5-0.1c-0.7-0.4-1.1-0.6-1.3-0.6c-0.3-0.2-0.5-0.6-0.5-1
		c0-0.3-0.1-0.5,0-0.8c0.2-3.3,0.3-5.6,0.4-7.2c-1,2.1-2.3,4.2-3.7,6.4c-1.4,2.1-2.5,3.5-3.2,4.1c-0.6,0.5-0.9,0.8-1.2,0.8
		s-0.7-0.2-1.2-0.5c-1-0.4-1.4-1-1.5-1.7c0-0.1,0-0.3-0.1-0.4c0-2.1,0.5-4.5,1.7-7.4c1.2-2.9,2.7-5.3,4.3-7.5c0.6-0.7,1-1.1,1.5-1.1
		c0.5-0.1,1.6,0.4,3.1,1.5c0.1,0.1,0.2,0.2,0.2,0.4c0,0.3-0.1,0.4-0.3,0.4c-0.1,0-0.3,0-0.3,0c-0.9-0.3-1.7-0.2-2.3,0.3
		c-1.2,1.1-2.3,2.9-3.5,5.6c-1.4,2.9-2.1,5.5-2.2,7.7c-0.1,0.5,0.2,0.7,0.5,0.7c0.5-0.1,1-0.4,1.5-1.1c1.3-1.7,2.6-3.7,4.1-6.3
		c1.5-2.5,2.4-4.5,2.7-5.7c0.2-0.7,0.3-1.3,0.4-2c0.7-5.2,1.7-9.6,3-13.4c1-3,1.9-5,2.8-6.1c0.3-0.4,0.7-0.6,1.1-0.7
		c0.4-0.1,0.9,0.1,1.5,0.4C178.7,83.3,179.4,83.7,180.3,84.1z"/>
	<path class="st3" d="M186,109.6c-2.7,4.7-4.7,7.2-6,7.3c-0.6,0.1-1.5-0.2-2.6-0.9c-1.1-0.4-1.7-0.9-1.8-1.7c0-0.1,0-0.3-0.1-0.5
		c0-2,0.2-4.1,0.7-6.3c-0.5-0.2-0.8-0.4-0.9-0.7c0-0.1,0.1-0.3,0.3-0.3c0.3,0,0.4-0.1,0.7,0c0.8-2.8,1.7-4.9,2.4-6.2
		c0.5-0.9,1-1.3,1.5-1.4c0.3,0,0.8,0.1,1.8,0.4c-0.2-0.4-0.1-0.6,0.3-0.8c0,0,0.4-0.1,0.9-0.1c0.6-0.1,0.9,0,0.9,0.1
		c0,0,0,0.1,0.1,0.4c0,0.3,0.1,0.4,0.1,0.5c0.1,0.5,0.2,1.2,0.2,1.8c0.1,0.8,0.2,1.2,0.2,1.4c0.2,1.7-0.1,2.9-0.9,3.8
		c-0.8,0.8-1.7,1.1-2.7,1.3c-0.5,0.1-1.6,0.1-2.9-0.1c-0.2,0.4-0.3,1.3-0.4,2.5c-0.2,1.6-0.1,3,0.1,4.2c0.1,0.8,0.4,1,0.8,0.9
		c0.1,0,0.4-0.1,0.6-0.2c1.5-0.7,3.4-2.8,5.8-6c0.1-0.1,0.3-0.3,0.5-0.3c0.3,0,0.4,0.1,0.4,0.3C186.2,109.2,186.1,109.5,186,109.6z
		 M182.5,101c-0.1-0.5-0.2-0.7-0.5-0.7c-0.1,0-0.4,0.2-0.6,0.5c-1.1,1.2-2.1,3.3-2.7,6.1c0.3,0,0.8,0,1.4-0.1
		c1.2-0.2,1.9-0.5,2.3-1.1c0.3-0.4,0.5-1.1,0.4-2.1C182.9,104.2,182.8,103.3,182.5,101z"/>
	<path class="st3" d="M203,105.8c-0.6,1.4-1.5,3.3-2.5,5.8c-0.2,0.7-0.3,1.3-0.5,1.9c-0.1,0.4-0.3,0.7-0.7,0.7c-0.3,0-0.7,0-1.1-0.1
		c-0.5-0.2-0.8-0.3-0.9-0.5c0-0.1,0.1-0.3,0.2-0.7c0.6-1.9,1.1-4.2,1.4-7c0.4-2.9,0.3-5.1,0-6.5c-0.1-0.6-0.3-0.9-0.5-0.8
		c-0.1,0-0.4,0.2-0.7,0.6c-3,3.8-5.3,8.7-7,14.6c-0.2,0.7-0.5,1.1-1,1.2c-0.3,0-0.8,0-1.6-0.3c-0.3-0.1-0.4-0.2-0.4-0.3
		c0,0,0.1-0.3,0.2-0.5c0.5-1.8,1-4.2,1.4-6.8c0.4-2.9,0.6-5.3,0.5-6.8c-0.1-0.5-0.1-0.8-0.1-0.8s-0.2,0.2-0.4,0.6
		c-0.3,0.4-0.8,1-1.3,1.6c-0.1,0.1-0.2,0.2-0.4,0.2c-0.1,0-0.3-0.1-0.3-0.2s0.1-0.3,0.2-0.4c0.5-0.9,1.2-1.9,1.9-3.1
		c0.2-0.3,0.3-0.4,0.6-0.5c0.4-0.1,0.7,0.2,1,0.6c1.2,0.2,1.8,0.5,1.7,1.3c0.1,1.6-0.3,4.3-1.2,8.4c0.6-1.9,1.7-4,3.1-6.4
		s2.6-3.9,3.3-4.4c0.4-0.2,0.7-0.4,0.9-0.4c0.1,0,0.5,0.1,1,0.4c1.2,0.2,1.8,0.8,1.9,1.7c0.1,0.9,0.1,2.5,0,4.7
		c-0.1,1.8-0.3,3.2-0.5,4.2c0.3-0.6,0.7-1.3,1.3-2.1c0.1-0.1,0.2-0.3,0.3-0.3c0.3,0,0.3,0.1,0.3,0.3
		C202.9,105.6,202.9,105.7,203,105.8z"/>
	<path class="st3" d="M217.9,78.9c0.1,0.1,0.3,0.2,0.3,0.3c0,0.3-0.1,0.4-0.5,0.5c-0.1,0-0.3,0-0.4-0.1c-0.7-0.3-1.2-0.4-1.5-0.3
		c-0.9,0.1-1.7,1.1-2.5,2.9c-2.9,6.4-4.4,14.5-4.7,24.5c1.1-2.6,1.9-4.4,2.5-5.6c1.1-2.2,2.3-4.1,3.6-5.7c0.7-0.7,1.3-1.2,1.8-1.3
		c0.3,0,0.8,0,1.5,0.3c1.2,0.4,2,1.2,2,2.3c0.1,2.7-0.2,5.4-0.8,8.1c-0.7,2.6-1.7,4.8-2.9,6.4c-0.3,0.4-0.7,0.7-1.2,0.8
		c-0.9,0.1-2.2-0.7-4.1-2.6c-0.2-0.2-0.3-0.3-0.3-0.6c0-0.3,0.1-0.3,0.3-0.3s0.5,0.1,0.7,0.2c0.9,0.5,1.7,0.8,2.2,0.7
		c0.5-0.1,1.1-0.5,1.5-1.3c0.7-1.3,1.4-3.1,1.9-5.2c0.6-2.4,0.7-4.5,0.4-6.3c-0.1-0.8-0.4-1-0.9-0.9c-0.3,0-0.6,0.2-0.8,0.5
		c-1.5,1.6-2.8,3.9-4.3,6.8c-1.4,3.1-2.4,6.1-2.8,8.7c-0.1,0.5-0.3,0.8-0.4,0.8c-0.1,0-0.3,0-0.4-0.1c-0.7-0.4-1.1-0.6-1.3-0.6
		c-0.3-0.2-0.5-0.6-0.5-1c0-0.3-0.1-0.5,0-0.8c0.3-8.9,1.4-16.5,3.1-23c1.3-4.9,2.5-8,3.7-9.6c0.3-0.4,0.7-0.6,1.1-0.7
		c0.4-0.1,0.9,0.1,1.5,0.4C216.3,78.1,217.1,78.5,217.9,78.9z"/>
	<path class="st3" d="M233.2,103.1c-2.7,4.7-4.7,7.2-6,7.3c-0.6,0.1-1.5-0.2-2.6-0.9c-1.1-0.4-1.7-0.9-1.8-1.7c0-0.1,0-0.3-0.1-0.5
		c0-2,0.2-4.1,0.7-6.3c-0.5-0.2-0.8-0.4-0.9-0.7c0-0.1,0.1-0.3,0.3-0.3s0.4-0.1,0.7,0c0.8-2.8,1.7-4.9,2.4-6.2
		c0.5-0.9,1-1.3,1.5-1.4c0.3,0,0.8,0.1,1.8,0.4c-0.2-0.4-0.1-0.6,0.3-0.8c0,0,0.4-0.1,0.9-0.1c0.6-0.1,0.9,0,0.9,0.1
		c0,0,0,0.1,0.1,0.4c0,0.3,0.1,0.4,0.1,0.5c0.1,0.5,0.2,1.2,0.2,1.8c0.1,0.8,0.2,1.2,0.2,1.4c0.2,1.7-0.1,2.9-0.9,3.8
		c-0.8,0.8-1.7,1.1-2.7,1.3c-0.5,0.1-1.6,0.1-2.9-0.1c-0.2,0.4-0.3,1.3-0.4,2.5c-0.2,1.6-0.1,3,0.1,4.2c0.1,0.8,0.4,1,0.8,0.9
		c0.1,0,0.4-0.1,0.6-0.2c1.5-0.7,3.4-2.8,5.8-6c0.1-0.1,0.3-0.3,0.5-0.3c0.3,0,0.4,0.1,0.4,0.3C233.4,102.7,233.3,102.9,233.2,103.1
		z M229.7,94.5c-0.1-0.5-0.2-0.7-0.5-0.7c-0.1,0-0.4,0.2-0.6,0.5c-1.1,1.2-2.1,3.3-2.7,6.1c0.3,0,0.8,0,1.4-0.1
		c1.2-0.2,1.9-0.5,2.3-1.1c0.3-0.4,0.5-1.1,0.4-2.1C230.1,97.7,230,96.8,229.7,94.5z"/>
	<path class="st3" d="M243.6,81.1c0.4,0.2,0.6,0.3,0.6,0.6c0,0.1-0.1,0.3-0.3,0.3c0,0-0.1,0-0.3,0c-0.1,0-0.3,0-0.3,0
		c-0.5,0.1-1.1,0.7-1.7,1.9c-0.5,1.1-1.1,3.4-1.8,6.9c-0.1,0.3-0.1,0.5-0.1,0.5c0,0.1,0.3,0.1,0.5,0.1c0.8,0,1.9-0.3,3.2-0.6
		c0.5-0.1,0.7,0,0.7,0.6c0,0.3-0.1,0.5-0.4,0.6c-0.3,0-1.8,0.4-4.4,1c-1,5-1.3,9.2-1.3,12.6c0,0.1,0.1,0.4,0.1,0.5
		c0.1,0.5,0.2,0.6,0.5,0.6c0.4-0.1,1.4-1.1,3-3.1c0.2-0.3,0.3-0.4,0.6-0.5c0.1,0,0.3,0.1,0.4,0.2c0,0.1,0.1,0.4-0.1,0.5
		c-1,1.6-1.8,3-2.7,4.1c-0.5,0.5-0.7,0.7-1.1,0.8s-0.8-0.1-1.5-0.6c-0.8-0.1-1.2-0.5-1.3-1.1c0-0.1,0-0.3-0.1-0.4
		c0-3.5,0.5-8,1.2-13.3c-0.8,0-1.4,0.1-2,0c-0.3,0-0.4-0.2-0.5-0.5c0-0.3,0.1-0.5,0.3-0.6c0.2-0.2,0.7-0.4,1.5-0.6
		c0.5-0.2,0.8-0.5,1.2-0.8c0.8-4.7,1.5-7.8,2.2-9.2c0.4-0.8,0.9-1.3,1.4-1.4C241.7,80.5,242.5,80.7,243.6,81.1z"/>
	<path class="st3" d="M256.2,90.3c0.2,1.8,0.2,3.5-0.1,5.2c-0.1,0.5-0.3,0.8-0.5,0.9c-0.1,0-0.7-0.2-1.4-0.6
		c-0.4-0.2-0.5-0.6-0.4-1.1c0.2-1.3,0.2-2.2,0.1-3c0-0.3-0.1-0.4-0.2-0.4c-0.1,0-0.3,0.3-0.7,0.9c-2.3,4.1-3.9,8.5-4.7,13.3
		c-0.3,1.5-0.5,2.3-0.8,2.3c-0.1,0-0.7-0.2-1.8-0.5c-0.5-0.2-0.7-0.6-0.7-1.2c0.4-4.9,1-9,1.8-12.4c-0.9,1.2-1.4,2-1.6,2.4
		c-0.1,0.1-0.2,0.3-0.5,0.3s-0.4-0.1-0.4-0.2s0-0.3,0.1-0.4c0.5-0.9,1.3-2.3,2.2-4.1c0.3-0.7,0.5-1,0.9-1c0.3,0,0.8,0,1.6,0.3
		c0.4,0.2,0.6,0.4,0.4,0.9c-0.2,0.4-0.6,1.9-1.1,4.4c-0.4,2.4-0.7,4.3-0.9,5.7c1.2-4.3,2.9-8.3,4.8-11.7c0.4-0.7,0.6-1,0.9-1
		s0.7,0,1.1,0.4c0.5,0.1,0.9,0,1.1,0.1C255.9,89.4,256.1,89.8,256.2,90.3z"/>
	<path class="st3" d="M268.2,98.2c-2.7,4.7-4.7,7.2-6,7.3c-0.6,0.1-1.5-0.2-2.6-0.9c-1.1-0.4-1.7-0.9-1.8-1.7c0-0.1,0-0.3-0.1-0.5
		c0-2,0.2-4.1,0.7-6.3c-0.5-0.2-0.8-0.4-0.9-0.7c0-0.1,0.1-0.3,0.3-0.3c0.3,0,0.4-0.1,0.7,0c0.8-2.8,1.7-4.9,2.4-6.2
		c0.5-0.9,1-1.3,1.5-1.4c0.3,0,0.8,0.1,1.8,0.4c-0.2-0.4-0.1-0.6,0.3-0.8c0,0,0.4-0.1,0.9-0.1c0.6-0.1,0.9,0,0.9,0.1
		c0,0,0,0.1,0.1,0.4c0,0.3,0.1,0.4,0.1,0.5c0.1,0.5,0.2,1.2,0.2,1.8c0.1,0.8,0.2,1.2,0.2,1.4c0.2,1.7-0.1,2.9-0.9,3.8
		c-0.8,0.8-1.7,1.1-2.7,1.3c-0.5,0.1-1.6,0.1-2.9-0.1c-0.2,0.4-0.3,1.3-0.4,2.5c-0.2,1.6-0.1,3,0.1,4.2c0.1,0.8,0.4,1,0.8,0.9
		c0.1,0,0.4-0.1,0.6-0.2c1.5-0.7,3.4-2.8,5.8-6c0.1-0.1,0.3-0.3,0.5-0.3c0.3,0,0.4,0.1,0.4,0.3C268.4,97.8,268.5,98.1,268.2,98.2z
		 M264.7,89.6c-0.1-0.5-0.2-0.7-0.5-0.7c-0.1,0-0.4,0.2-0.6,0.5c-1.1,1.2-2.1,3.3-2.7,6.1c0.3,0,0.8,0,1.4-0.1
		c1.2-0.2,1.9-0.5,2.3-1.1c0.3-0.4,0.5-1.1,0.4-2.1C265.1,92.8,265,91.9,264.7,89.6z"/>
	<path class="st3" d="M284.1,86.9c-1.3,3.6-2.2,7.7-2.5,12.3c0.3-0.7,0.7-1.7,1.1-2.8c0.1-0.1,0.1-0.3,0.3-0.3
		c0.3,0,0.3,0.1,0.3,0.3c0,0.1,0,0.1,0,0.3c-0.6,2-0.9,3.6-1,4.8c0,0.7-0.2,1.1-0.5,1.1c-0.3,0-0.8-0.1-1.6-0.6
		c-0.4-0.2-0.6-0.7-0.6-1.5c0.1-3,0.5-5.7,1-8c-2,4.6-3.8,8.1-5.3,10.4c-0.3,0.6-0.7,0.7-1.2,0.8c-0.4,0.1-0.8,0-1.5-0.3
		c-0.9,0-1.5-0.4-1.6-1.2c0-0.1,0-0.3-0.1-0.5c-0.1-3.9,0-7.3,0.8-10c-0.2,0.3-0.6,0.6-0.9,1c-0.1,0.1-0.2,0.2-0.4,0.2
		c-0.1-0.1-0.2-0.2-0.1-0.5c0.6-1.1,0.9-1.9,1-2.4c0.2-1.1,0.6-2,0.9-2.6c0.2-0.3,0.5-0.5,0.7-0.5c0.4-0.1,0.9,0.1,1.8,0.4
		c0.1,0.1,0.3,0.2,0.3,0.3l-0.4,0.7c-0.5,1.1-1,3-1.4,5.8c-0.4,2.9-0.6,5.3-0.3,7.1c0.1,0.6,0.3,0.9,0.5,0.8c0.3,0,0.5-0.3,0.9-0.9
		c0.9-1.3,2.1-3.5,3.6-6.9c1.4-2.9,2.2-4.9,2.5-5.8c0.4-1.5,0.8-2.3,1.2-2.6c0.2-0.2,0.5-0.3,0.6-0.3c0.1,0,0.5,0.1,1.2,0.2
		c0.5,0.2,0.8,0.4,0.9,0.5c0,0,0,0.1-0.1,0.1C284.2,86.8,284.2,86.8,284.1,86.9z"/>
	<path class="st3" d="M300.7,84.6c-1.3,3.6-2.2,7.7-2.5,12.3c0.3-0.7,0.7-1.7,1.1-2.8c0.1-0.1,0.1-0.3,0.3-0.3
		c0.3,0,0.3,0.1,0.3,0.3c0,0.1,0,0.1,0,0.3c-0.6,2-0.9,3.6-1,4.8c0,0.7-0.2,1.1-0.5,1.1c-0.3,0-0.8-0.1-1.6-0.6
		c-0.4-0.2-0.6-0.7-0.6-1.5c0.1-3,0.5-5.7,1-8c-2,4.6-3.8,8.1-5.3,10.4c-0.3,0.6-0.7,0.7-1.2,0.8c-0.4,0.1-0.8,0-1.5-0.3
		c-0.9,0-1.5-0.4-1.6-1.2c0-0.1,0-0.3-0.1-0.5c-0.1-3.9,0-7.3,0.8-10c-0.2,0.3-0.6,0.6-0.9,1c-0.1,0.1-0.2,0.2-0.4,0.2
		c-0.1-0.1-0.2-0.2-0.1-0.5c0.6-1.1,0.9-1.9,1-2.4c0.2-1.1,0.6-2,0.9-2.6c0.2-0.3,0.5-0.5,0.7-0.5c0.4-0.1,0.9,0.1,1.8,0.4
		c0.1,0.1,0.3,0.2,0.3,0.3l-0.4,0.7c-0.5,1.1-1,3-1.4,5.8c-0.4,2.9-0.6,5.3-0.3,7.1c0.1,0.6,0.3,0.9,0.5,0.8c0.3,0,0.5-0.3,0.9-0.9
		c0.9-1.3,2.1-3.5,3.6-6.9c1.4-2.9,2.2-4.9,2.5-5.8c0.4-1.5,0.8-2.3,1.2-2.6c0.2-0.2,0.5-0.3,0.6-0.3c0.1,0,0.5,0.1,1.2,0.2
		c0.5,0.2,0.8,0.4,0.9,0.5c0,0,0,0.1-0.1,0.1C300.8,84.5,300.7,84.5,300.7,84.6z"/>
	<path class="st3" d="M318.3,89.9c-0.6,1.4-1.5,3.3-2.5,5.8c-0.2,0.7-0.3,1.3-0.5,1.9c-0.1,0.4-0.3,0.7-0.7,0.7
		c-0.3,0-0.7,0-1.1-0.1c-0.5-0.2-0.8-0.3-0.9-0.5c0-0.1,0.1-0.3,0.2-0.7c0.6-1.9,1.1-4.2,1.4-7c0.4-2.9,0.3-5.1,0-6.5
		c-0.1-0.6-0.3-0.9-0.5-0.8c-0.1,0-0.4,0.2-0.7,0.6c-3,3.8-5.3,8.7-7,14.6c-0.2,0.7-0.5,1.1-1,1.2c-0.3,0-0.8,0-1.6-0.3
		c-0.3-0.1-0.4-0.2-0.4-0.3c0,0,0.1-0.3,0.2-0.5c0.5-1.8,1-4.2,1.4-6.8c0.4-2.9,0.6-5.3,0.5-6.8c-0.1-0.5-0.1-0.8-0.1-0.8
		s-0.2,0.2-0.4,0.6c-0.3,0.4-0.8,1-1.3,1.6c-0.1,0.1-0.2,0.2-0.4,0.2c-0.1,0-0.3-0.1-0.3-0.2c0-0.1,0.1-0.3,0.2-0.4
		c0.5-0.9,1.2-1.9,1.9-3.1c0.2-0.3,0.3-0.4,0.6-0.5c0.4-0.1,0.7,0.2,1,0.6c1.2,0.2,1.8,0.5,1.7,1.3c0.1,1.6-0.3,4.3-1.2,8.4
		c0.6-1.9,1.7-4,3.1-6.4c1.5-2.4,2.6-3.9,3.3-4.4c0.4-0.2,0.7-0.4,0.9-0.4c0.1,0,0.5,0.1,1,0.4c1.2,0.2,1.8,0.8,1.9,1.7
		c0.1,0.9,0.1,2.5,0,4.7c-0.1,1.8-0.3,3.2-0.5,4.2c0.3-0.6,0.7-1.3,1.3-2.1c0.1-0.1,0.2-0.3,0.3-0.3c0.3,0,0.3,0.1,0.3,0.3
		C318.2,89.6,318.2,89.7,318.3,89.9z"/>
	<path class="st3" d="M333.6,80.4c-1.2,22.2-5.1,33.8-11.8,34.6c-2.4,0.3-5.2-0.6-8.3-2.9c-0.3-0.2-0.5-0.5-0.5-0.7
		c-0.1-0.4,0-0.7,0.4-0.7c0.1,0,0.4,0.1,0.5,0.2c2.4,1.6,4.6,2.2,6.3,2c5.6-0.8,9.1-9.6,10.5-26.6c-1.8,4.2-3.3,7.2-4.7,9.1
		c-0.6,0.7-1.1,1.2-1.6,1.3c-0.5,0.1-1.2-0.1-1.9-0.5c-1.4-0.5-2.1-1.4-2.2-2.9c-0.1-1.8,0.2-4.1,1.1-6.9c0.9-2.7,1.9-4.8,3.2-6.3
		c0.7-0.9,1.4-1.4,1.9-1.4c0.5-0.1,1.1,0.1,1.6,0.4c0.1,0.1,0.7,0.4,1.9,1.2c0.3,0.1,0.3,0.3,0.3,0.5c0,0.3-0.1,0.4-0.5,0.5
		c-0.3,0-0.4,0.1-0.7,0c-0.4-0.2-0.8-0.3-1.2-0.2c-0.5,0.1-1,0.4-1.4,0.9c-0.9,1-1.7,2.6-2.5,4.6c-0.8,2.3-1.4,4.4-1.4,6.2
		c-0.1,0.5,0,0.9,0,1.3c0.1,1,0.5,1.5,1,1.4c0.4-0.1,0.7-0.2,1.1-0.7c1.5-1.6,2.7-3.8,4-6.7c1.2-2.6,1.9-5,2.3-7.1
		c0.1-0.8,0.2-1.5,0.1-2.1c-0.1-0.5,0-0.8,0.3-0.8c0.3,0,0.8,0.1,1.7,0.7C333.4,78.9,333.6,79.5,333.6,80.4z"/>
	<path class="st3" d="M356.8,59.6c0.3,0.1,0.3,0.2,0.3,0.3c0,0.3-0.1,0.4-0.5,0.5c-0.1,0-0.3,0-0.4-0.1c-0.7-0.3-1.2-0.4-1.5-0.3
		c-0.9,0.1-1.7,1.1-2.5,2.9c-2.9,6.4-4.4,14.5-4.7,24.5c1.1-2.6,1.9-4.4,2.5-5.6c1.1-2.2,2.3-4.1,3.6-5.7c0.7-0.7,1.3-1.2,1.8-1.3
		c0.3,0,0.8,0,1.5,0.3c1.2,0.4,2,1.2,2,2.3c0.1,2.7-0.2,5.4-0.8,8.1c-0.7,2.6-1.7,4.8-2.9,6.4c-0.3,0.4-0.7,0.7-1.2,0.8
		c-0.9,0.1-2.2-0.7-4.1-2.6c-0.2-0.2-0.3-0.3-0.3-0.6c0-0.3,0.1-0.3,0.3-0.3c0.3,0,0.5,0.1,0.7,0.2c0.9,0.5,1.7,0.8,2.2,0.7
		s1.1-0.5,1.5-1.3c0.7-1.3,1.4-3.1,1.9-5.2c0.6-2.4,0.7-4.5,0.4-6.3c-0.1-0.8-0.4-1-0.9-0.9c-0.3,0-0.6,0.2-0.8,0.5
		c-1.5,1.6-2.8,3.9-4.3,6.8c-1.4,3.1-2.4,6.1-2.8,8.7c-0.1,0.5-0.3,0.8-0.4,0.8c-0.1,0-0.3,0-0.4-0.1c-0.7-0.4-1.1-0.6-1.3-0.6
		c-0.3-0.2-0.5-0.6-0.5-1c0-0.3-0.1-0.5,0-0.8c0.3-8.9,1.4-16.5,3.1-23c1.3-4.9,2.5-8,3.7-9.6c0.3-0.4,0.7-0.6,1.1-0.7
		c0.4-0.1,0.9,0.1,1.5,0.4C355.4,58.8,356.1,59.2,356.8,59.6z"/>
	<path class="st3" d="M372.3,83.8c-2.7,4.7-4.7,7.2-6,7.3c-0.6,0.1-1.5-0.2-2.6-0.9c-1.1-0.4-1.7-0.9-1.8-1.7c0-0.1,0-0.3-0.1-0.5
		c0-2,0.2-4.1,0.7-6.3c-0.5-0.2-0.8-0.4-0.9-0.7c0-0.1,0.1-0.3,0.3-0.3c0.3,0,0.4-0.1,0.7,0c0.8-2.8,1.7-4.9,2.4-6.2
		c0.5-0.9,1-1.3,1.5-1.4c0.3,0,0.8,0.1,1.8,0.4c-0.2-0.4-0.1-0.6,0.3-0.8c0,0,0.4-0.1,0.9-0.1c0.6-0.1,0.9,0,0.9,0.1
		c0,0,0,0.1,0.1,0.4c0,0.1,0.1,0.4,0.1,0.5c0.1,0.5,0.2,1.2,0.2,1.8c0.1,0.8,0.2,1.2,0.2,1.4c0.2,1.7-0.1,2.9-0.9,3.8
		c-0.8,0.8-1.7,1.1-2.7,1.3c-0.5,0.1-1.6,0.1-2.9-0.1c-0.2,0.4-0.3,1.3-0.4,2.5c-0.2,1.6-0.1,3,0.1,4.2c0.1,0.8,0.4,1,0.8,0.9
		c0.1,0,0.4-0.1,0.6-0.2c1.5-0.7,3.4-2.8,5.8-6c0.1-0.1,0.3-0.3,0.5-0.3c0.3,0,0.4,0.1,0.4,0.3C372.3,83.4,372.4,83.7,372.3,83.8z
		 M368.6,75.2c-0.1-0.5-0.2-0.7-0.5-0.7c-0.1,0-0.4,0.2-0.6,0.5c-1.1,1.2-2.1,3.3-2.7,6.1c0.3,0,0.8,0,1.4-0.1
		c1.2-0.2,1.9-0.5,2.3-1.1c0.3-0.4,0.5-1.1,0.4-2.1C369,78.4,368.9,77.5,368.6,75.2z"/>
	<path class="st3" d="M378.4,74.8c-0.1,1.8-0.5,5-1.3,9.4c0.3-0.4,0.8-1.1,1.4-2.1c0.1-0.1,0.1-0.1,0.2-0.2c0.3,0,0.3,0.1,0.2,0.5
		c-0.1,0.1-0.5,1.1-1.3,3c-0.6,1.4-1.1,2.6-1.3,3.7c-0.1,0.3-0.3,0.6-0.6,0.6c-0.3,0-0.8,0-1.3-0.3c-0.4-0.1-0.6-0.3-0.6-0.3
		c0-0.1,0.1-0.3,0.2-0.5c0.6-1.4,1.1-3.7,1.5-6.9c0.5-3.1,0.6-5.3,0.5-6.7c-0.1-0.6-0.1-0.9-0.3-0.9c-0.1,0-0.4,0.2-0.6,0.5
		l-1.1,1.3c-0.3,0.4-0.6,0.5-0.6,0.1c0-0.1,0-0.3,0.1-0.4c0.5-1,1-2,1.7-2.8c0.2-0.3,0.3-0.4,0.6-0.5c0.3,0,0.5,0.1,1,0.4
		c0.7,0,1.1,0.1,1.1,0.1c0.3,0.1,0.6,0.4,0.7,1C378.5,74.1,378.4,74.5,378.4,74.8z M380,65.4c0.3,0.1,0.4,0.3,0.5,0.5
		c0.1,0.4-0.5,1.1-1.5,2c-0.7,0.6-1.4,1-2.2,0.8c-0.4-0.1-0.8-0.1-1.1-0.2c-0.1-0.1-0.1-0.1-0.3-0.2s0-0.1,0-0.3c0,0,0.1-0.1,0.3,0
		c1.1-1.2,1.8-2.2,2.1-2.6c0.2-0.4,0.4-0.6,0.6-0.6C378.6,64.7,379.2,65,380,65.4z"/>
	<path class="st3" d="M404.2,64c0,4-0.5,8.5-1.9,13.7c-1.6,6.1-3.5,9.2-5.7,9.5c-1.4,0.2-3-0.4-5.2-1.5c-0.1-0.1-0.3-0.2-0.3-0.5
		c-0.1-0.5,0.1-0.8,0.5-0.9c0.1,0,0.3,0,0.4,0.1c1.2,0.5,2.3,0.6,3.1,0.5c1.8-0.2,3.5-3.2,4.9-8.9c1.3-5.5,1.8-10.3,1.4-14.5
		c-0.2-1.4-0.9-2-2.3-1.8c-0.3,0-0.5,0.1-0.8,0.1c-1,0.3-2.2,1.3-3.2,3.1c-1.3,1.9-2,4.1-2.4,6.3c-0.1,0.3-0.1,0.5,0,0.8
		c0.1,0.5,0.3,1,0.7,1.3c0.3,0.2,0.7,0.6,1,0.8c0.1,0.1,0.3,0.2,0.3,0.3c0,0.3-0.2,0.4-0.6,0.5c-0.1,0-0.3,0-0.4-0.1
		c-1.2-0.5-2.1-1-2.7-1.3c-0.6-0.4-0.9-1-1-1.7c-0.1-0.6,0-1.6,0.4-2.8c0.5-1.8,1.3-3.4,2.5-5.3c1.1-1.7,2.2-2.8,3.2-3.4
		c0.5-0.3,1.5-0.3,3.1,0c0.1-0.1,0.2-0.2,0.4-0.2c0.5-0.1,1.6,0.3,3.3,1.1C403.6,59.9,404.1,61.4,404.2,64z"/>
	<path class="st3" d="M419.2,51c0.1,0.1,0.3,0.2,0.3,0.5s-0.1,0.4-0.5,0.5c-0.1,0-0.3,0-0.4-0.1c-0.7-0.2-1.2-0.4-1.5-0.3
		c-0.8,0.1-1.7,1-2.5,2.8c-2.8,6.4-4.4,14.3-4.8,24c1.6-4.5,3.7-8.3,6.1-11.3c0.6-0.6,0.9-0.9,1.2-0.9c0.1,0,0.4,0.1,1.1,0.4
		c0.8,0.1,1.2,0.4,1.3,0.3c0.4,0.2,0.6,0.8,0.7,1.6c0,0.3,0.1,0.5,0.1,0.8c0.1,2.5-0.2,5.5-0.8,9.1c0.3-0.6,0.8-1.5,1.7-2.8
		c0.2-0.3,0.3-0.4,0.5-0.5c0.1,0,0.3,0.1,0.3,0.2c0,0.3-0.1,0.4-0.2,0.7c-0.6,1.3-1.4,3.1-2.5,5.4c-0.1,0.3-0.3,0.8-0.5,1.8
		c-0.1,0.4-0.3,0.7-0.7,0.7c-0.4,0.1-0.9-0.1-1.6-0.6c-0.3-0.1-0.3-0.5-0.3-0.9c1.5-6.2,2.2-10.7,1.9-13.7c-0.1-0.8-0.3-1.3-0.6-1.2
		c-0.1,0-0.5,0.3-1.1,0.8c-0.9,1-2,2.6-3.2,5c-1.7,3.1-2.8,6.2-3.4,9.3c-0.1,0.9-0.5,1.4-0.7,1.4s-0.7-0.2-1.5-0.7
		c-0.4-0.2-0.6-0.7-0.6-1.4c0.3-8.8,1.4-16.5,3.1-23c1.3-4.9,2.5-8,3.9-9.7c0.3-0.4,0.7-0.6,1.1-0.7c0.4-0.1,0.9,0.1,1.5,0.4
		C417.6,50.2,418.3,50.6,419.2,51z"/>
	<path class="st3" d="M439.2,73.1c-0.6,1.4-1.5,3.3-2.5,5.8c-0.2,0.7-0.3,1.3-0.5,1.9c-0.1,0.4-0.3,0.7-0.7,0.7
		c-0.3,0-0.7,0-1.1-0.1c-0.5-0.2-0.8-0.3-0.9-0.5c0-0.1,0.1-0.3,0.2-0.7c0.6-1.9,1.1-4.2,1.4-7c0.4-2.9,0.3-5.1,0-6.5
		c-0.1-0.6-0.3-0.9-0.5-0.8c-0.1,0-0.4,0.2-0.7,0.6c-3,3.8-5.3,8.7-7,14.6c-0.2,0.7-0.5,1.1-1,1.2c-0.3,0-0.8,0-1.6-0.3
		c-0.3-0.1-0.4-0.2-0.4-0.3c0,0,0.1-0.3,0.2-0.5c0.5-1.8,1-4.2,1.4-6.8c0.4-2.9,0.6-5.3,0.5-6.8c-0.1-0.5-0.1-0.8-0.1-0.8
		s-0.2,0.2-0.4,0.6c-0.3,0.4-0.8,1-1.3,1.6c-0.1,0.1-0.2,0.2-0.4,0.2s-0.3-0.1-0.3-0.2c0-0.1,0.1-0.3,0.2-0.4
		c0.5-0.9,1.2-1.9,1.9-3.1c0.2-0.3,0.3-0.4,0.6-0.5c0.4-0.1,0.7,0.2,1,0.6c1.2,0.2,1.8,0.5,1.7,1.3c0.1,1.6-0.3,4.3-1.2,8.4
		c0.6-1.9,1.7-4,3.1-6.4c1.5-2.4,2.6-3.9,3.3-4.4c0.4-0.2,0.7-0.4,0.9-0.4c0.1,0,0.5,0.1,1,0.4c1.2,0.2,1.8,0.8,1.9,1.7
		c0.1,0.9,0.1,2.5,0,4.7c-0.1,1.8-0.3,3.2-0.5,4.2c0.3-0.6,0.7-1.3,1.3-2.1c0.1-0.1,0.2-0.3,0.3-0.3c0.3,0,0.3,0.1,0.3,0.3
		C439.1,72.9,439.2,73,439.2,73.1z"/>
	<path class="st3" d="M452,72.8c-2.7,4.7-4.7,7.2-6,7.3c-0.6,0.1-1.5-0.2-2.6-0.9c-1.1-0.4-1.7-0.9-1.8-1.7c0-0.1,0-0.3-0.1-0.5
		c0-2,0.2-4.1,0.7-6.3c-0.5-0.2-0.8-0.4-0.9-0.7c0-0.1,0.1-0.3,0.3-0.3c0.3,0,0.4-0.1,0.7,0c0.8-2.8,1.7-4.9,2.4-6.2
		c0.5-0.9,1-1.3,1.5-1.4c0.3,0,0.8,0.1,1.8,0.4c-0.2-0.4-0.1-0.6,0.3-0.8c0,0,0.4-0.1,0.9-0.1c0.6-0.1,0.9,0,0.9,0.1
		c0,0,0,0.1,0.1,0.4s0.1,0.4,0.1,0.5c0.1,0.5,0.2,1.2,0.2,1.8c0.1,0.6,0.2,1.2,0.2,1.4c0.2,1.7-0.1,2.9-0.9,3.8
		c-0.8,0.8-1.7,1.1-2.7,1.3c-0.5,0.1-1.6,0.1-2.9-0.1c-0.2,0.4-0.3,1.3-0.4,2.5c-0.2,1.6-0.1,3,0.1,4.2c0.1,0.8,0.4,1,0.8,0.9
		c0.1,0,0.4-0.1,0.6-0.2c1.5-0.7,3.4-2.8,5.8-6c0.1-0.1,0.3-0.3,0.5-0.3c0.3,0,0.4,0.1,0.4,0.3C452.1,72.4,452.1,72.6,452,72.8z
		 M448.4,64.1c-0.1-0.5-0.2-0.7-0.5-0.7c-0.1,0-0.4,0.2-0.6,0.5c-1.1,1.2-2.1,3.3-2.7,6.1c0.3,0,0.8,0,1.4-0.1
		c1.2-0.2,1.9-0.5,2.3-1.1c0.3-0.4,0.5-1.1,0.4-2.1C448.8,67.3,448.7,66.4,448.4,64.1z"/>
	<path class="st3" d="M468.8,69c-0.6,1.4-1.5,3.3-2.5,5.8c-0.2,0.7-0.3,1.3-0.5,1.9c-0.1,0.4-0.3,0.7-0.7,0.7c-0.3,0-0.7,0-1.1-0.1
		c-0.5-0.2-0.8-0.3-0.9-0.5c0-0.1,0.1-0.3,0.2-0.7c0.6-1.9,1.1-4.2,1.4-7c0.4-2.9,0.3-5.1,0-6.5c-0.1-0.6-0.3-0.9-0.5-0.8
		c-0.1,0-0.4,0.2-0.7,0.6c-3,3.8-5.3,8.7-7,14.6c-0.2,0.7-0.5,1.1-1,1.2c-0.3,0-0.8,0-1.6-0.3c-0.3-0.1-0.4-0.2-0.4-0.3
		c0,0,0.1-0.3,0.2-0.5c0.5-1.8,1-4.2,1.4-6.8c0.4-2.9,0.6-5.3,0.5-6.8c-0.1-0.5-0.1-0.8-0.1-0.8s-0.2,0.2-0.4,0.6
		c-0.3,0.4-0.8,1-1.3,1.6c-0.1,0.1-0.2,0.2-0.4,0.2c-0.1,0-0.3-0.1-0.3-0.2c0-0.1,0.1-0.3,0.2-0.4c0.5-0.9,1.2-1.9,1.9-3.1
		c0.2-0.3,0.3-0.4,0.6-0.5c0.4-0.1,0.7,0.2,1,0.6c1.2,0.2,1.8,0.5,1.7,1.3c0.1,1.6-0.3,4.3-1.2,8.4c0.6-1.9,1.7-4,3.1-6.4
		c1.5-2.4,2.6-3.9,3.3-4.4c0.4-0.2,0.7-0.4,0.9-0.4c0.1,0,0.5,0.1,1,0.4c1.2,0.2,1.8,0.8,1.9,1.7c0.1,0.9,0.1,2.5,0,4.7
		c-0.1,1.8-0.3,3.2-0.5,4.2c0.3-0.6,0.7-1.3,1.3-2.1c0.1-0.1,0.2-0.3,0.3-0.3c0.3,0,0.3,0.1,0.3,0.3C468.9,68.7,468.8,68.9,468.8,69
		z"/>
	<path class="st3" d="M490,57.5c0.1,0.4,0,1-0.3,1.9c-0.1,0.5-0.4,0.7-0.8,0.8c-0.3,0-0.7,0-1.2-0.1c-1,1.2-2,2.7-2.9,4.6
		c0.4-0.1,1-0.1,1.7-0.2c0.8-0.1,1.2-0.2,1.3-0.2c0.4-0.1,0.5,0.1,0.5,0.2c0,0.1-0.1,0.3-0.3,0.4c-1.2,0.6-2.7,1.2-4.5,2.1
		c-1.4,2.3-2.2,4-2.4,4.9c0.5-0.1,1.6-0.1,3.2-0.2c1.7,0,2.8-0.1,3.5-0.2c0.8-0.1,1.4-0.6,1.8-1.4c0.1-0.3,0.2-0.3,0.3-0.3
		c0.3,0,0.4,0.2,0.2,0.6c-0.1,0.4-0.4,1.2-1,2.5c-0.4,1-1,1.4-1.9,1.6c-0.6,0.1-1.7,0-3.3-0.2c-1.6-0.3-2.8-0.3-3.5-0.2
		c-0.4,0.1-0.6,0.1-0.9,0.1c-0.3,0.8-0.6,1.4-1.1,1.5c-0.3,0-0.5-0.2-0.9-0.5c-0.3-0.5-0.5-0.8-0.5-1.1c-0.1-0.4,0-0.7,0.3-0.9
		c0.4-0.6,1-1.1,1.8-1.2c1-1.4,1.7-2.7,2.1-3.5c0-0.3-0.2-0.6-0.4-1.1c-0.2-0.4-0.2-0.6-0.2-0.7c0-0.1,0-0.3,0.1-0.4
		c0.2-0.4,1.1-0.8,2.5-1c1.1-1.7,2-3.4,3-5c-1.2-0.1-2.5-0.2-3.8,0c-0.9,0.1-1.5,0.3-2,0.8c-0.5,0.5-0.9,1-1.2,2
		c-0.1,0.4-0.3,0.6-0.6,0.6c-0.1,0-0.3-0.1-0.3-0.3c0-0.1,0-0.3,0.1-0.4c0.3-1.6,0.7-2.8,0.9-3.6c0.2-0.5,0.4-0.8,0.5-1
		c0.2-0.3,0.7-0.4,1.5-0.5c1.3-0.2,3.4-0.1,6.5,0.1c0.6-0.6,0.9-0.9,1-0.9c0.1,0,0.3,0,0.5,0.1C489.8,57.1,490,57.2,490,57.5z"/>
	<path class="st3" d="M506.3,56.1c-1.3,3.6-2.2,7.7-2.5,12.3c0.3-0.7,0.7-1.7,1.1-2.8c0.1-0.1,0.1-0.3,0.3-0.3
		c0.3,0,0.3,0.1,0.3,0.3c0,0.1,0,0.1,0,0.3c-0.6,2-0.9,3.6-1,4.8c0,0.7-0.2,1.1-0.5,1.1c-0.3,0-0.8-0.1-1.6-0.6
		c-0.4-0.2-0.6-0.7-0.6-1.5c0.1-3,0.5-5.7,1-8c-2,4.6-3.8,8.1-5.3,10.4c-0.3,0.6-0.7,0.7-1.2,0.8c-0.4,0.1-0.8,0-1.5-0.3
		c-0.9,0-1.5-0.4-1.6-1.2c0-0.1,0-0.3-0.1-0.5c-0.1-3.9,0-7.3,0.8-10c-0.2,0.3-0.6,0.6-0.9,1c-0.1,0.1-0.2,0.2-0.4,0.2
		c-0.1-0.1-0.2-0.2-0.1-0.5c0.6-1.1,0.9-1.9,1-2.4c0.2-1.1,0.6-2,0.9-2.6c0.2-0.3,0.5-0.5,0.7-0.5c0.4-0.1,0.9,0.1,1.8,0.4
		c0.1,0.1,0.3,0.2,0.3,0.3l-0.3,0.7c-0.5,1.1-1,3-1.4,5.8c-0.4,2.9-0.6,5.3-0.3,7.1c0.1,0.6,0.3,0.9,0.5,0.8c0.3,0,0.5-0.3,0.9-0.9
		c0.9-1.3,2.1-3.5,3.6-6.9c1.4-2.9,2.2-4.9,2.5-5.8c0.4-1.5,0.8-2.3,1.2-2.6c0.2-0.2,0.5-0.3,0.6-0.3c0.1,0,0.5,0.1,1.2,0.2
		c0.5,0.2,0.8,0.4,0.9,0.5c0,0,0,0.1-0.1,0.1C506.4,56,506.2,56,506.3,56.1z"/>
	<path class="st3" d="M547.1,37.7c0.4,0.1,0.6,0.3,0.6,0.4c0,0.3-0.2,0.4-0.7,0.5c-0.8,0.1-1.2,0.2-1,0.1c-0.4,0.1-0.9,0.4-1.2,0.8
		c-0.9,1-1.6,3.2-2.5,6.6c-1.1,4.3-1.8,9.5-2.3,16l1.1-2.6c0.2-0.5,0.4-0.7,0.8-0.8c0.1,0,0.3,0.1,0.3,0.3c0,0.1,0.1,0.4,0,0.7
		c-0.5,1.9-0.8,2.8-0.8,3c-0.3,1.3-0.4,2.4-0.5,3.2c0,0.8-0.1,1.3-0.5,1.4c-0.3,0-0.9-0.1-2-0.6c-0.3-0.1-0.5-0.6-0.6-1.5
		c-0.2-1.7-0.1-4.5,0.2-8.9c-5.1,0.5-9,1-11.3,1.8c-0.4,1.6-0.9,3.6-1.7,6.2c-0.8,2.6-1.4,4.2-1.8,5.1c-0.3,0.7-0.8,1-1.4,1
		c-1.5-0.3-2.2-0.6-2.2-1c0-0.3,0.1-0.5,0.1-0.9c0.3-0.7,0.6-1.5,0.9-2.6c0-0.1-0.1-0.6-0.2-1.5c-0.1-0.4,0-0.7,0.3-0.7
		c0.1,0,0.5,0.2,1.1,0.8c0.4,0.3,0.6,0.6,0.5,0.8c0.6-1,1.2-2.6,1.7-4.8c-1-1.4-1.4-2.3-1.4-2.7c-0.1-0.9,0.7-1.4,2.6-1.7
		c0.4-1.6,1-3.8,1.7-6.7c0.6-3,1-5.1,1.1-6.3c-0.2,0.3-1.2,0.9-3,1.8c-2.3,1.2-3.9,2-4.6,2.5c-1.3,1-2,1.8-1.8,2.7
		c0.1,0.4,0.3,0.9,0.5,1.5c0,0.1,0,0.1,0,0.3c0,0.3-0.1,0.4-0.3,0.4c-0.3,0-0.4-0.1-0.6-0.3c-0.5-0.5-0.8-1.2-1.2-2.2
		c-0.5-1-0.8-1.7-0.8-2.4c0-1,1.3-2.1,4.1-3.2c1.9-0.6,3.7-1.4,5.6-2.1c1.2-0.6,2-1.2,2.4-2.2c0.2-0.4,0.4-0.7,0.6-0.7
		c0.3,0,0.7,0.2,1.2,0.5c0.3,0.1,0.4,0.3,0.5,0.7c0.1,0.8-0.2,2.9-1.2,6.7c-0.4,1.6-1.1,4.3-2.1,8.2c3.8-0.1,7.5-0.6,11.1-1.4
		c0.4-3.4,1-6.5,1.8-9.6c1.2-4.8,2.5-7.4,3.8-7.7C544.3,36.8,545.5,37,547.1,37.7z"/>
	<path class="st3" d="M558.3,50.1c-0.8,3.6-1.3,6.7-1.4,9c0.2-0.2,0.4-0.6,0.6-1c0.3-0.4,0.4-0.7,0.6-0.7c0.1-0.3,0.3-0.4,0.6-0.5
		c0.3,0,0.3,0.1,0.3,0.2c0,0.1,0,0.3-0.1,0.4c-1,2.1-1.6,4.1-1.8,6.1c-0.1,0.5-0.1,0.8-0.4,0.8c-0.3,0-0.7-0.2-1.4-0.5
		c-0.4-0.2-0.7-0.4-0.7-0.6c-0.1-0.1-0.2-0.5-0.1-0.9c0-3.5,0.4-6.4,1-8.9c-0.9,2.1-2.2,4.5-4,7.1c-1.5,2.3-2.6,3.7-3.3,4.4
		c-0.5,0.5-0.9,0.8-1.2,0.8s-0.7-0.2-1.2-0.5c-0.8-0.3-1.2-0.9-1.3-1.6c0-0.1,0-0.3-0.1-0.5c0-2.1,0.5-4.5,1.7-7.4s2.7-5.3,4.3-7.5
		c0.6-0.7,1-1.1,1.5-1.1c0.5-0.1,1.5,0.4,3.1,1.5c0.1,0.1,0.2,0.2,0.2,0.4c0,0.3-0.1,0.4-0.3,0.4c-0.1,0-0.3,0-0.3,0
		c-1.1-0.2-1.8-0.1-2.3,0.3c-1.2,1.1-2.3,2.9-3.5,5.6c-1.4,2.9-2.1,5.5-2.2,7.7c0,0.1,0,0.1,0,0.3c0.1,0.4,0.2,0.5,0.5,0.5
		c0.5-0.1,1-0.4,1.5-1.1c1.3-1.7,2.7-3.8,4.1-6.3c1.5-2.5,2.4-4.5,2.7-5.7c0.3-0.9,0.4-1.6,0.5-1.9c0-0.7,0.3-0.9,0.4-1
		c0.1,0,0.7,0.2,1.5,0.7c0.3,0.2,0.6,0.3,0.6,0.6C558.5,49.4,558.4,49.7,558.3,50.1z"/>
	<path class="st3" d="M575.7,46.5c-1.3,3.6-2.2,7.7-2.5,12.3c0.3-0.7,0.7-1.7,1.1-2.8c0.1-0.1,0.1-0.3,0.3-0.3
		c0.3,0,0.3,0.1,0.3,0.3c0,0.1,0,0.1,0,0.3c-0.6,2-0.9,3.6-1,4.8c0,0.7-0.2,1.1-0.5,1.1c-0.3,0-0.8-0.1-1.6-0.6
		c-0.4-0.2-0.6-0.7-0.6-1.5c0.1-3,0.5-5.7,1-8c-2,4.6-3.8,8.1-5.3,10.4c-0.3,0.6-0.7,0.7-1.2,0.8c-0.4,0.1-0.8,0-1.5-0.3
		c-0.9,0-1.5-0.4-1.6-1.2c0-0.1,0-0.3-0.1-0.5c-0.1-3.9,0-7.3,0.8-10c-0.2,0.3-0.6,0.6-0.9,1c-0.1,0.1-0.2,0.2-0.4,0.2
		c-0.1-0.1-0.2-0.2-0.1-0.5c0.6-1.1,0.9-1.9,1-2.4c0.2-1.1,0.6-2,0.9-2.6c0.2-0.3,0.5-0.5,0.7-0.5c0.4-0.1,0.9,0.1,1.8,0.4
		c0.1,0.1,0.3,0.2,0.3,0.3l-0.3,0.7c-0.5,1.1-1,3-1.4,5.8c-0.4,2.9-0.6,5.3-0.3,7.1c0.1,0.6,0.3,0.9,0.5,0.8s0.5-0.3,0.9-0.9
		c0.9-1.3,2.1-3.5,3.6-6.9c1.4-2.9,2.2-4.9,2.5-5.8c0.4-1.5,0.8-2.3,1.2-2.6c0.2-0.2,0.5-0.3,0.6-0.3c0.1,0,0.5,0.1,1.2,0.2
		c0.5,0.2,0.8,0.4,0.9,0.5c0,0,0,0.1-0.1,0.1C575.8,46.4,575.8,46.4,575.7,46.5z"/>
	<path class="st3" d="M584.5,55.6c0.2,1.7-0.5,2.8-2.2,3.7c-0.2,0.5-0.4,1.1-0.5,1.2c-0.2,0.4-0.7,0.6-1.3,0.7
		c-0.4,0.1-0.8,0.1-1.3,0.2c-0.8,0-1.8,0-3-0.1c-0.4,0.1-0.5-0.2-0.7-0.6c-0.1-0.4,0.3-0.7,1.1-0.8c1-0.3,2.4-0.6,4.1-1.1
		c0.7-0.2,1.1-0.7,1.4-1.4c0.1-0.4,0.1-0.8,0.1-1.2c-0.1-0.9-0.7-2.2-1.9-4.3c-1.2-1.9-1.8-3.3-1.7-4.1c-0.1-1.7,1.3-3,4.2-4.2
		c0.2-0.2,0.5-0.1,0.6,0.3c0,0.1-0.1,0.3-0.3,0.4c-1.3,0.8-2,1.7-1.9,2.6c0.1,0.4,0.2,0.7,0.5,1.4c0.2,0.5,0.8,1.8,1.8,3.8
		C583.9,53.7,584.4,54.8,584.5,55.6z M586.2,43.5c0.1,0.6,0.1,1.6-0.1,3c-0.1,0.5-0.1,0.8-0.3,0.9c-0.1,0.1-0.2,0.2-0.6,0.3
		c-0.5,0.2-0.7,0.4-0.9,0.4c-0.3,0-0.3-0.1-0.3-0.3c0-0.1-0.1-0.4,0-0.7c0.2-1.5,0.2-2.4,0-2.9c-0.2-0.5,0-0.9,0.4-1.1
		c0.6-0.5,1.1-0.7,1.2-0.7C585.8,42.6,586.1,42.8,586.2,43.5z"/>
	<path class="st3" d="M598.8,52.4c-2.7,4.7-4.7,7.2-6,7.3c-0.6,0.1-1.5-0.2-2.6-0.9c-1.1-0.4-1.7-0.9-1.8-1.7c0-0.1,0-0.3-0.1-0.5
		c0-2,0.2-4.1,0.7-6.3c-0.5-0.2-0.8-0.4-0.9-0.7c0-0.1,0.1-0.3,0.3-0.3c0.3,0,0.4-0.1,0.7,0c0.8-2.8,1.7-4.9,2.4-6.2
		c0.5-0.9,1-1.3,1.5-1.4c0.3,0,0.8,0.1,1.8,0.4c-0.2-0.4-0.1-0.6,0.3-0.8c0,0,0.4-0.1,0.9-0.1c0.6-0.1,0.9,0,0.9,0.1
		c0,0,0,0.1,0.1,0.4c0,0.3,0.1,0.4,0.1,0.5c0.1,0.5,0.2,1.2,0.2,1.8s0.2,1.2,0.2,1.4c0.2,1.7-0.1,2.9-0.9,3.8
		c-0.8,0.8-1.7,1.1-2.7,1.3c-0.5,0.1-1.6,0.1-2.9-0.1c-0.2,0.4-0.3,1.3-0.4,2.5c-0.2,1.6-0.1,3,0.1,4.2c0.1,0.8,0.4,1,0.8,0.9
		c0.1,0,0.4-0.1,0.6-0.2c1.5-0.7,3.4-2.8,5.8-6c0.1-0.1,0.3-0.3,0.5-0.3c0.3,0,0.4,0.1,0.4,0.3C598.8,52,598.9,52.3,598.8,52.4z
		 M595.1,43.8c-0.1-0.5-0.2-0.7-0.5-0.7c-0.1,0-0.4,0.2-0.6,0.5c-1.1,1.2-2.1,3.3-2.7,6.1c0.3,0,0.8,0,1.4-0.1
		c1.2-0.2,1.9-0.5,2.3-1.1c0.3-0.4,0.5-1.1,0.4-2.1C595.5,47,595.4,46.1,595.1,43.8z"/>
</g>
</svg>
