<?xml version="1.0" encoding="utf-8"?>
<!-- Generator: Adobe Illustrator 19.2.1, SVG Export Plug-In . SVG Version: 6.00 Build 0)  -->
<svg version="1.1" id="Layer_1" xmlns="http://www.w3.org/2000/svg" xmlns:xlink="http://www.w3.org/1999/xlink" x="0px" y="0px"
	 viewBox="0 0 426.8 296" style="enable-background:new 0 0 426.8 296;" xml:space="preserve">
<style type="text/css">
	.st0{fill:#FFFFFF;}
	.st1{fill:#8E1018;}
	.st2{fill:#4C90CE;}
	.st3{fill:#FDFCFA;}
</style>
<g id="Layer_2">
	<rect class="st0" width="426.8" height="296"/>
</g>
<g id="Layer_1_1_">
	<title>41b364b9-1d90-4282-aa98-70e17909f1c1</title>
	<g>
		<path class="st1" d="M213.4,0.1h210c2.7,0,3.4,0.6,3.4,3.3c-0.1,63.2-0.1,126.4,0,189.6c0,2.2-0.5,2.8-2.8,2.8h-41
			c-0.8,0-2.2,0.8-2.4-0.8s0.5-2.1,2.1-2.4c7.9-1.7,15.9-2.5,24-2.4c1.6,0,3.2,0,4.5-1.2s3-3.7,2.2-6.3s-3-3.2-5.3-3.4
			c-3.6-0.2-7.2,0-10.7,0.5c-8.2,0.9-16.4,1.9-24.2,4.5c-5.4,1.8-6.5,5.2-3.5,10c1,1.6-0.5,1.6-1.4,1.6h-11c-0.8-0.1-1.7-0.1-2.5,0
			c-3,0.6-4.2-0.6-5-3.7c-2.3-9.2-11-13.3-21.2-10.5c-1.9,0.5-3.3,1.1-5.2-0.6s-5.7-0.9-6.6,2.2c-0.7,2.5-2.5,4.7-4.9,5.8
			c-2.5,1.3-4.8,3-5.8,5.8c-0.4,1-1.1,0.8-1.8,0.8h-18.8c-1.8,0-1.7-0.7-1.2-2s1.3-4.3,1.9-6.4c0.7-2.5-0.3-5.2-2.5-6.6
			c-2.3-1.6-4.5-0.7-6.5,0.8c-4.2,3.2-7.4,7.4-10.7,11.5c-1.3,1.9-3.5,3-5.8,2.8c-8.3-0.2-16.7-0.1-25,0c-2.2,0-3.6-0.1-3-3
			c0.3-1.6,0.1-3.2-0.4-4.7c-2.1-7-8.4-9.4-14.9-5.9c-4.9,2.7-8.7,6.5-12.1,10.7c-1.4,1.9-3.6,3-6,2.9c-20.1-0.1-40.3-0.1-60.5,0
			c-2.4,0-3.1-0.5-3.1-3c0.1-32.9,0.1-65.8,0.1-98.7c0-1.1,0-2.3-0.1-3.4c-0.6-7.1-3.2-9.5-10.3-9.5c-14,0-27.9,0.1-41.9-0.1
			c-3.1,0-4.5,1.2-5.1,3.9c-1.2,5.9-1.2,11.9,0,17.8c0.6,2.8,2.1,4.2,5.3,4.1c7.2-0.2,14.4,0,21.7-0.1c1.9,0,2.6,0.3,2.5,2.4
			c-0.1,11.4-0.1,22.9,0,34.3c0.2,1.4-0.6,2.7-1.9,3.3c-8.6,4.6-17.7,5.1-27,2.6c-13.8-3.6-22.1-13.1-26.9-25.9
			c-6-15.8-6.4-32.1-3.5-48.6c2-11.4,6.3-21.6,14.7-29.9s20.5-12.3,33.2-11s22.1,5.8,31.7,12.6c0.8,0.6,1.7,1.2,2.6,1.6
			c1.2,0.7,2.7,0.3,3.4-0.9c0.1-0.2,0.2-0.4,0.3-0.6c0.5-1.2,0.8-2.5,0.9-3.8c0.8-6.2,0.7-12.6-0.3-18.8c-0.9-5-4.9-7.3-8.8-9.6
			c-7.1-4-14.9-6.6-23-7.6C90.7,5.3,78.1,5.6,65.9,9.8C52,14.6,40.2,24.1,32.5,36.7c-8.3,13.1-12.3,27.5-13.8,42.8s-1,32.5,3.4,48.4
			c3.6,13,9.5,24.7,19.5,34.1s22,14.6,35.5,16.4c9.9,1.2,19.8,0.9,29.6-1c1.8-0.3,2.4,0,2.4,2c-0.2,4.7-0.1,9.4,0,14.1
			c0,1.7-0.5,2.3-2.2,2.2H3.2c-2.7,0-3.2-0.8-3.2-3.3c0.1-63,0.1-126,0-189C0,0.4,0.9,0,3.6,0h209.8L213.4,0.1L213.4,0.1z
			 M164.4,92.5c0,23.6,0,47.2,0,70.9c0,1.4,0,2.8,0.1,4.2c0.5,5.8,3.5,8.6,9.2,8.6h66.9c2.9,0,4.4-1.3,4.8-3.9c1-6.2,1-12.5,0-18.7
			c-0.4-2.7-2-4.1-5-4h-45.8c-1.8,0-2.3-0.4-2.3-2.3c0.1-14.1,0.1-28.3,0-42.5c0-2.2,0.7-2.6,2.7-2.5c12.6,0.1,25.1,0,37.7,0.1
			c2.9,0,4.3-1.2,4.8-3.7c1.2-6.2,1.2-12.5,0-18.7c-0.5-2.4-1.9-3.7-4.7-3.7c-12.6,0.1-25.1,0-37.7,0.1c-2.3,0-2.7-0.6-2.7-2.8
			c0.1-11.7,0.2-23.4,0-35.1c0-2.8,0.9-3.1,3.3-3.1c14.8,0.1,29.6,0,44.4,0.1c3,0,4.4-1.2,4.9-3.8c1.3-6.3,1.3-12.9,0-19.2
			c-0.5-2.6-1.9-3.7-4.7-3.6C229.5,9,218.7,9,208,9h-34.8c-4.9,0-7.3,2.1-8.5,6.9c-0.3,1.7-0.4,3.5-0.3,5.3
			C164.4,44.9,164.4,68.7,164.4,92.5z M324.2,105c0-21.9,0-43.9-0.1-65.8c0-2.1,0.5-2.6,2.6-2.6h30.6c2.3,0,3.9-0.8,4.4-3
			c1.8-7.2,1.8-14.7,0-21.9c-0.5-1.9-1.8-2.8-3.9-2.8h-95.5c-1.9-0.2-3.7,1.1-3.9,3.1l0,0c-1.5,6.9-1.5,14-0.1,20.9
			c0.5,2.7,1.9,3.7,4.7,3.7c10-0.1,20.1,0.1,30.1-0.1c2.7-0.1,3.1,0.8,3.1,3.3c-0.1,43.3-0.1,86.6-0.1,129.9c0,4.5,0.8,5.6,5.2,6.5
			c6.1,1.4,12.4,1.3,18.4-0.1c3.7-0.9,4.5-2.1,4.5-5.9C324.2,148.5,324.2,126.7,324.2,105z M382.9,175.7h18.3
			c10.1,0.2,18.4-7.9,18.6-18c0-0.2,0-0.5,0-0.7c0-11.7,0-23.4,0-35.1c0-10.8-7.9-18.8-18.7-18.8h-36c-9.9-0.2-18.2,7.7-18.4,17.6
			c0,0.3,0,0.5,0,0.8c0,11.9,0,23.8,0,35.7c0,10.7,7.8,18.5,18.6,18.6H383L382.9,175.7z"/>
		<path class="st2" d="M228.1,249.9c-4.4,8.3-9.1,16.4-12.5,25.1c-0.7,2-1.3,3.9,0.3,5.8s4,2.3,6.1,0.5s3-4.3,4.1-6.6
			c4.8-9.8,9.7-19.4,15-28.9c1-1.8,2.6-3.2,4.5-3.9c4.8-1.9,9.7-3.5,14.6-5c2.8-0.9,2.9-0.7,2.5,2c-1.2,6.7-2.5,13.4-3.6,20.2
			c-0.8,5.7-1.1,11.4-0.9,17.1c-0.1,1.1,0.2,2.3,0.7,3.3c1.3,2.1,2.8,3.9,5.6,3.4s3.3-2.7,3.4-5.2c0.2-13.7,3-27.1,5.2-40.6
			c0.5-3.1,2.4-3,4.6-3s5.8-1.9,6.1-5.2s-1.3-5.4-5.4-5.4c-2.1,0-2.3-0.8-1.8-2.5c1.7-6.1,3.4-12.3,5-18.4c0.4-1.7,1.2-2.4,3.1-2.3
			c6.6,0.1,13.1,0.2,19.7,0c2.2-0.1,3.7,1.8,6.2,1.2c-1.7,3.9-3.2,7.4-4.8,10.8s-2.2,4.7-3.5,7s-1.4,4.5-4.9,4.5s-4.1,2.6-3.5,5
			c1.5,6.2-2.1,10.9-4.3,16c-4.1,9.6-8.1,19.1-10.7,29.2c-0.6,2.2-0.5,4.4,1.4,6c1.4,1.2,3.4,1.4,5,0.6c1.2-0.5,2.2-1.5,2.5-2.8
			c2-6.1,3.9-12.1,5.9-18.1s3.5-9.9,5.5-15.5c1.4,4.2,2.6,7.6,3.7,11.1c2.6,8,5.9,15.8,9.9,23.2c1.5,3,3.6,4,5.8,3s4.4-4.4,2.9-7.4
			c-2.6-5.3-5.4-10.5-7.7-15.9s-5.2-13-7.6-19.6c-0.6-1.7-0.6-2.4,1.6-2.4c14.4-0.3,26.3-6.1,35.5-17.1c3.9-4.8,6.5-10.6,7.4-16.8
			c0.2-1.1,0.1-2,1.7-2h14.3c-2.4,4.5-4.8,8.5-6.9,12.6c-9.2,17.9-17.6,36.2-23.3,55.6c-1,3.5-0.8,6.5,1.6,9.2s3.7,2.2,5.5,0.6
			c7-6,15.6-7.4,24.2-8.8c2.5-0.4,5-0.4,7.5-0.6s4.7-1.6,5-4.3s-0.9-4.6-4.1-5.4s-8.8-0.4-13.1,0.5c-4.6,1-9,2.5-13.3,4.4
			c-0.6,0.2-1.3,0.8-1.8,0.1c-0.1-0.5-0.1-1.1,0.2-1.6c3.9-10.2,7.9-20.4,12.6-30.3c0.8-1.8,2.3-2.3,4-2.7
			c5.8-1.4,11.7-2.3,17.7-2.8c1.6-0.1,3.1-0.3,4.7-0.6c3-0.6,4.5-2.4,4.3-5.3s-2.1-4.7-5.2-4.8c-5.6-0.1-10.9,1.3-16.4,2.4
			c-1,0.3-2,0.4-3,0.3l6.8-11.6c0.2-0.2,0.3-0.5,0.4-0.7c1.7-5.7,5.7-6.5,11.1-6.3c12.6,0.4,25.3,0.2,38,0c3,0,3.5,0.9,3.5,3.6
			c-0.1,29.5-0.1,59.1,0,88.6c0,2.8-0.6,3.5-3.5,3.5H138.1c-1.8,0-2.4-0.4-2.4-2.3c0.1-30.4,0.1-60.8,0-91.1c0-1.2-0.1-2.2,1.7-2.2
			h60.3l-4.1,5.9c-3.2,5-5.9,10.2-8.3,15.6c-2.1,4.7-4.9,9-7.4,13.5c-3.7,6.6-6.4,13.8-7.9,21.2c-1.3,6.8-1.3,13.6,2.4,19.9
			s10,9,17.3,6.5s13.1-8.2,17.9-14.4c4.6-6,8.5-12.6,11.6-19.5c2.9,4.4,5.8,1.4,8.6,0.4L228.1,249.9z"/>
		<path class="st2" d="M54.5,200.8H106c2.2,0,3,0.4,3,2.9c-0.1,29.8-0.1,59.6,0,89.4c0,2.4-0.7,2.9-3,2.9H3.1c-2.6,0-3-0.8-3-3.2
			c0.1-29.6,0.1-59.2,0-88.8c0-2.6,0.7-3.2,3.3-3.2L54.5,200.8L54.5,200.8z M30,214.9H14.8c-1.7,0-2.3,0.5-2.2,2.2
			c0.1,7.5,0.1,15,0,22.5c0,1.9,0.7,2.4,2.4,2.3h13.2c6.1,0,6.1,0,6.4-6.2c0-0.1,0-0.2,0-0.3c0-2.2,0.9-3.3,3.2-3.2h6.5
			c1.8,0.1,2.5-0.5,2.5-2.4c-0.1-4.2-0.1-8.4,0-12.6c0.1-1.9-0.7-2.4-2.4-2.3H30z M29.7,280.6c4.7,0,9.4-0.1,14,0
			c2.3,0.1,3.2-0.5,3-2.9s0-6.5,0-9.8s0-4.5-4.6-4.6c-6.9-0.1-7.8,1.6-7.5-7.3c0.1-1.6-0.3-2.4-2.1-2.3H14.8c-1.8,0-2.2,0.6-2.2,2.3
			c0.1,7.5,0.1,15,0,22.5c0,1.7,0.5,2.3,2.2,2.2h14.9V280.6z M78.2,214.9h-15c-1.2,0-2.2,0-2.2,1.7c0.1,4.6,0.1,9.2,0,13.8
			c0,1.3,0.5,1.9,1.8,1.8H65c7.7,0,7.8,0,8,7.6c0.1,1.6,0.5,2.1,2.1,2.1H93c1.7,0,2.2-0.5,2.2-2.2c-0.1-7.5-0.1-15,0-22.5
			c0-2-0.7-2.3-2.5-2.3L78.2,214.9L78.2,214.9z M78.1,280.6H93c1.7,0,2.3-0.5,2.2-2.2c-0.1-7.5-0.1-15,0-22.5c0-1.7-0.5-2.3-2.2-2.3
			H79.5c-6.1,0-6.1,0-6.3,6c0,0.1,0,0.2,0,0.3c0,2.3-1,3.5-3.4,3.4h-6.4c-1.7-0.1-2.4,0.5-2.3,2.2c0.1,4.2,0.1,8.4,0,12.6
			c0,1.8,0.5,2.5,2.4,2.4h14.6V280.6z M53.8,258.8h12.9c1.4,0,2-0.5,2-1.9c-0.1-6.1-0.1-12.2,0-18.3c0-1.5-0.4-2.2-2.1-2.2H41
			c-1.4,0-2,0.5-2,2c0.1,6.1,0.1,12.2,0,18.3c0,1.9,0.8,2.1,2.4,2.1H53.8z"/>
		<path class="st2" d="M260.3,200.3c-2.7,5-6.2,8.7-9.1,12.9s-5.8,8.5-8.3,13s-7.6,11-14.9,12.6c-3,0.6-5.7,2-7.9,4
			c-0.5,0.5-1.3,0.6-1.9,0.3c-2-0.7-3.5,0.2-4.4,2c-2.8,5.4-5.9,10.6-9.4,15.6c-3.5,5.3-8.3,9.6-14,12.4c-4.4,2.1-9.1-0.8-10.2-6
			s0-9.5,1-14.2c2.7-12.5,8-23.9,14.9-34.6c3.7-5.6,7.7-11,11.6-16.6c0.5-1,1.6-1.6,2.7-1.6h11c1.7,0,2.1,0.6,1.2,2
			c-3.3,5.7-6.7,11.4-12,15.7c-2.7,2.2-2.9,5-0.5,7.5s4.9,1.9,7.1-0.6c6-6.7,11.4-13.9,13.9-22.8c0.1-1.1,1.1-1.9,2.2-1.8h0.1h26.9
			L260.3,200.3z"/>
		<path class="st2" d="M308.7,225.5c3.7-5.9,6.7-12.1,9-18.7c1.8-5.6,4.9-7.2,10.4-6.6c4,0.5,8,0.2,12.1,0.1c1.7,0,2.1,0.4,1.7,2.1
			C338.3,216.7,324,226.9,308.7,225.5z"/>
		<path class="st2" d="M249,230.8c7-10.6,14.7-20.8,23-30.4c0.2,2.3-0.2,4.6-1.2,6.7c-2.3,5.4-3.5,11.2-5,16.9
			c-0.3,0.9-0.5,1.7-1.6,2C259,227.2,253.9,228.8,249,230.8z"/>
		<path class="st1" d="M322.9,195.6c4.1-2.8,8.4-4.7,13.4-4.2c1,0.2,2,0.5,2.9,0.9c1.1,0.5,2.4,1.4,2.2,2.6s-1.9,0.6-2.8,0.6
			L322.9,195.6L322.9,195.6z"/>
		<path class="st1" d="M213.2,195.6c2.6-2.4,5.3-4.6,8.7-5.7c1-0.3,2.1-0.5,2.8,0.5s0.5,2.9,0.3,4.3s-1.3,0.9-2.1,0.9H213.2z"/>
		<path class="st2" d="M227.7,249.5h0.6l-0.2,0.6L227.7,249.5z"/>
		<path class="st3" d="M382.9,175.6h-17.7c-10.8-0.1-18.6-7.8-18.6-18.6s0-23.8,0-35.7c-0.2-9.9,7.7-18.2,17.6-18.4
			c0.3,0,0.5,0,0.8,0h36c10.8,0,18.7,8,18.7,18.8s0,23.4,0,35.1c0.2,10.1-7.8,18.5-17.9,18.7c-0.2,0-0.5,0-0.7,0h-18.2L382.9,175.6
			L382.9,175.6z M418.3,139.4c0-6,0.1-12,0-18c-0.2-10-7.5-17.2-17.6-17.3h-35.1c-9.6-0.2-17.5,7.5-17.7,17.1c0,0.2,0,0.5,0,0.7
			c0,11.5,0,23.1,0,34.6c0,10.4,7.5,17.9,17.8,17.9h34.6c10.7,0,18-7.2,18.1-17.9C418.3,150.8,418.3,145.1,418.3,139.4L418.3,139.4z
			"/>
		<path class="st1" d="M418.3,139.4c0,5.7,0,11.4,0,17.2c-0.1,10.7-7.3,17.8-18.1,17.9h-34.6c-10.3,0-17.8-7.5-17.8-17.9
			s0-23.1,0-34.6c-0.2-9.6,7.4-17.6,17-17.8c0.2,0,0.5,0,0.7,0h35.2c10,0.1,17.4,7.2,17.6,17.3C418.4,127.4,418.3,133.4,418.3,139.4
			z M404,149.7h8.7c1.5,0.1,2.1-0.2,2.1-1.9c-0.1-5.5-0.1-11.1,0-16.6c0-1.7-0.5-2-2.1-2h-17.1c-1.9,0-2.4-0.5-2.3-2.4
			c0.1-5.6,0-11.3,0.1-16.9c0-1.6-0.5-2-2-2H375c-1.6,0-2,0.5-2,2c0.1,5.6-0.1,11.3,0.1,16.9c0,1.9-0.5,2.4-2.4,2.3h-16.9
			c-1.8,0-2.2,0.5-2.1,2.2c0.1,5.4,0.1,10.9,0,16.3c0,1.6,0.4,2.1,2,2h17.2c1.7,0,2.2,0.5,2.2,2.2c-0.1,5.6,0,11.3-0.1,16.9
			c0,1.7,0.3,2.5,2.2,2.4c5.2-0.2,10.5-0.2,15.7,0c2.1,0.1,2.4-0.7,2.4-2.6c-0.1-5.6,0-11.2-0.1-16.9c0-1.6,0.4-2.1,2-2
			S401.1,149.7,404,149.7z"/>
	</g>
</g>
</svg>
