<svg xmlns="http://www.w3.org/2000/svg" xmlns:xlink="http://www.w3.org/1999/xlink" viewBox="0 0 87.94 72.05"><defs><style>.cls-1{fill:url(#linear-gradient);}.cls-2{fill:url(#linear-gradient-2);}.cls-3{fill:url(#linear-gradient-3);}.cls-4{fill:url(#linear-gradient-4);}.cls-13,.cls-5{fill:#67a1d6;}.cls-6{fill:url(#linear-gradient-5);}.cls-7{fill:url(#linear-gradient-6);}.cls-8{fill:url(#linear-gradient-7);}.cls-9{fill:url(#linear-gradient-8);}.cls-10{fill:url(#radial-gradient);}.cls-11{fill:#fff;}.cls-12{font-size:17.21px;fill:#a22123;}.cls-12,.cls-13{font-family:DINAlternate-Bold, DIN Alternate;font-weight:700;}.cls-13{font-size:9.94px;}</style><linearGradient id="linear-gradient" x1="30.98" y1="3.6" x2="30.98" y2="38.26" gradientUnits="userSpaceOnUse"><stop offset="0" stop-color="#9ebbd6"/><stop offset="1" stop-color="#67a1d6"/></linearGradient><linearGradient id="linear-gradient-2" x1="24.39" y1="2.82" x2="24.39" y2="12.9" xlink:href="#linear-gradient"/><linearGradient id="linear-gradient-3" x1="25.69" y1="5.19" x2="25.69" y2="13.8" xlink:href="#linear-gradient"/><linearGradient id="linear-gradient-4" x1="26.37" y1="7.33" x2="26.37" y2="14.6" xlink:href="#linear-gradient"/><linearGradient id="linear-gradient-5" x1="-217.86" y1="3.6" x2="-217.86" y2="38.26" gradientTransform="matrix(-1, 0, 0, 1, -160.94, 0)" xlink:href="#linear-gradient"/><linearGradient id="linear-gradient-6" x1="-224.45" y1="2.82" x2="-224.45" y2="12.9" gradientTransform="matrix(-1, 0, 0, 1, -160.94, 0)" xlink:href="#linear-gradient"/><linearGradient id="linear-gradient-7" x1="-223.16" y1="5.19" x2="-223.16" y2="13.8" gradientTransform="matrix(-1, 0, 0, 1, -160.94, 0)" xlink:href="#linear-gradient"/><linearGradient id="linear-gradient-8" x1="-222.48" y1="7.33" x2="-222.48" y2="14.6" gradientTransform="matrix(-1, 0, 0, 1, -160.94, 0)" xlink:href="#linear-gradient"/><radialGradient id="radial-gradient" cx="52.03" cy="4.49" r="20.05" gradientUnits="userSpaceOnUse"><stop offset="0" stop-color="#d12529"/><stop offset="1" stop-color="#a22123"/></radialGradient></defs><title>Asset 1</title><g id="Layer_2" data-name="Layer 2"><g id="Layer_1-2" data-name="Layer 1"><path class="cls-1" d="M32.4,38.24a13.62,13.62,0,0,0-3.16-5.14,44.88,44.88,0,0,0-3.91-3.22c-1.2-1-2.56-1.81-3.71-2.84a3.31,3.31,0,0,1-1.32-2.27c-.05-1.24.11-2.48,0-3.73a33.79,33.79,0,0,1-.42-5.7,28.94,28.94,0,0,1,.71-4.63c.36-1.7.72-3.4,1.13-5.09.19-.77.72-3,1.86-1.5.79,1,.62,2.63.52,3.87s-.16,2.63-.33,4a2.08,2.08,0,0,0-2.68.8c-.75,1.55.23,3.46,1.15,4.7q1.61,2.18,3.19,4.36c.74,1,1.52,2,2.23,3.08a2.33,2.33,0,0,0,.47.47c.45.3.39.16.22-.2a15.13,15.13,0,0,0-1.62-2.06q-1.31-1.74-2.58-3.49c-1.21-1.67-2.82-3.38-3-5.54a1.72,1.72,0,0,1,2.61-1.7c1.86.92,3,3.26,3.94,5a15.64,15.64,0,0,0,4,4.35C33.19,23,35,23.87,36.55,25A18.27,18.27,0,0,1,40,28.15a10.5,10.5,0,0,1,1.37,2.65,10.1,10.1,0,0,1,.73,3.72c0,.59,0,1.19,0,1.78,0,.25.07,1.55-.13,1.72s-1.28.08-1.54.09C37.76,38.15,35.1,38.32,32.4,38.24Z"/><path class="cls-2" d="M23.42,3.56c1.35,1.46.91,3.46.78,5.3-.07,1-.09,1.81-.2,2.74-.08.7.23.79.79,1.3q.26-2.82.49-5.64c.07-.83.1-1.68.09-2.51a2.43,2.43,0,0,0-.47-1.63C24.39,2.55,23.64,2.87,23.42,3.56Z"/><path class="cls-3" d="M25,13c.12-1.42.22-2.15.33-3.56.07-.86.14-1.93.22-2.79,0-.24,0-1.46.32-1.44s.62.83.57,1.32c-.07.9-.18,1.8-.27,2.69l-.51,4.6Z"/><path class="cls-4" d="M26.51,7.33c-.16,1.22-.41,4.05-.58,5.3a2.13,2.13,0,0,0,.39,2S27.39,8.48,26.51,7.33Z"/><path class="cls-5" d="M31.17,38.56s9,.91,11.75-.3A4.21,4.21,0,0,0,42.84,40a7.34,7.34,0,0,1,.32,1.78s-8.89-.32-12.91.33A4.9,4.9,0,0,0,31.17,38.56Z"/><path class="cls-6" d="M55.5,38.24a13.75,13.75,0,0,1,3.16-5.14,46.42,46.42,0,0,1,3.91-3.22c1.21-1,2.57-1.81,3.71-2.84a3.31,3.31,0,0,0,1.32-2.27c.05-1.24-.11-2.48,0-3.73a34.86,34.86,0,0,0,.42-5.7,30.13,30.13,0,0,0-.72-4.63C67,9,66.62,7.31,66.21,5.62c-.19-.77-.72-3-1.86-1.5-.79,1-.62,2.63-.52,3.87s.16,2.63.33,4a2.08,2.08,0,0,1,2.68.8c.75,1.55-.23,3.46-1.14,4.7-1.07,1.45-2.14,2.9-3.19,4.36-.75,1-1.53,2-2.24,3.08a2.33,2.33,0,0,1-.47.47c-.45.3-.39.16-.21-.2a15,15,0,0,1,1.61-2.06q1.3-1.74,2.58-3.49c1.21-1.67,2.83-3.38,3-5.54a1.73,1.73,0,0,0-2.62-1.7c-1.86.92-3,3.26-3.93,5a15.67,15.67,0,0,1-4,4.35c-1.5,1.18-3.32,2.1-4.86,3.24a18.58,18.58,0,0,0-3.44,3.14,10.44,10.44,0,0,0-1.36,2.65,10.11,10.11,0,0,0-.74,3.72c0,.59,0,1.19,0,1.78,0,.25-.07,1.55.12,1.72s1.28.08,1.54.09C50.14,38.15,52.8,38.32,55.5,38.24Z"/><path class="cls-7" d="M64.49,3.56C63.13,5,63.57,7,63.7,8.86c.07,1,.09,1.81.2,2.74.09.7-.23.79-.79,1.3C63,11,62.78,9.14,62.62,7.26c-.06-.83-.1-1.68-.09-2.51A2.43,2.43,0,0,1,63,3.12.87.87,0,0,1,64.49,3.56Z"/><path class="cls-8" d="M62.94,13c-.12-1.42-.21-2.15-.33-3.56-.07-.86-.14-1.93-.21-2.79,0-.24,0-1.46-.33-1.44s-.61.83-.57,1.32c.07.9.18,1.8.28,2.69.16,1.53.33,3.06.51,4.6Z"/><path class="cls-9" d="M61.4,7.33c.15,1.22.41,4.05.57,5.3.14,1,0,1.5-.39,2C61.58,14.6,60.52,8.48,61.4,7.33Z"/><path class="cls-5" d="M56.74,38.56s-9.05.91-11.76-.3A4.17,4.17,0,0,1,45.07,40a6.86,6.86,0,0,0-.32,1.78s8.88-.32,12.9.33A4.91,4.91,0,0,1,56.74,38.56Z"/><g id="AA9jUI"><path class="cls-10" d="M44,3.43c-.27-.38-.48-.74-.74-1.05A6.82,6.82,0,0,0,36.57.14a7.59,7.59,0,0,0-6.23,7,11.9,11.9,0,0,0,2.27,7.25c2.83,4.19,6.79,7.1,11,9.68a.83.83,0,0,0,.72,0c1.09-.67,2.17-1.35,3.21-2.09a28.6,28.6,0,0,0,8-7.86,10.91,10.91,0,0,0,2-7.64A7.5,7.5,0,0,0,51.7.18,7,7,0,0,0,44,3.43Z"/><path class="cls-10" d="M44,3.43A7,7,0,0,1,51.7.18a7.5,7.5,0,0,1,5.81,6.28,10.91,10.91,0,0,1-2,7.64,28.6,28.6,0,0,1-8,7.86c-1,.74-2.12,1.42-3.21,2.09a.83.83,0,0,1-.72,0c-4.25-2.58-8.21-5.49-11-9.68a11.9,11.9,0,0,1-2.27-7.25,7.59,7.59,0,0,1,6.23-7,6.82,6.82,0,0,1,6.67,2.24C43.5,2.69,43.71,3.05,44,3.43Z"/></g><path class="cls-11" d="M47.69,13.89c.53,0,1.05,0,1.57,0,.27,0,.38,0,.38-.35,0-1,0-2,0-3,0-.29-.1-.36-.38-.35-1,0-2,0-3.07,0-.34,0-.43-.09-.42-.43,0-1,0-2,0-3,0-.29-.08-.37-.36-.37-1,0-2,0-2.93,0-.29,0-.37.08-.36.37,0,1,0,2,0,3,0,.34-.09.42-.42.42-1,0-2,0-3,0-.32,0-.39.1-.38.4,0,1,0,2,0,2.93,0,.28.07.37.36.36,1,0,2,0,3.08,0,.31,0,.4.08.39.39,0,1,0,2,0,3,0,.31,0,.44.4.43.94,0,1.88,0,2.83,0,.37,0,.43-.12.42-.46,0-1,0-2,0-3,0-.29.07-.39.36-.37.52,0,1,0,1.56,0"/><text class="cls-12" transform="translate(0 58.32)">SCHWEIZER</text><text class="cls-13" transform="translate(17.21 69.32)">BETREUUNG</text></g></g></svg>